<?xml version="1.0" encoding="utf-8"?>
<!-- Generator: Adobe Illustrator 27.5.0, SVG Export Plug-In . SVG Version: 6.00 Build 0)  -->
<svg version="1.1" id="Layer_1" xmlns="http://www.w3.org/2000/svg" xmlns:xlink="http://www.w3.org/1999/xlink" x="0px" y="0px"
	 viewBox="0 0 80 80" style="enable-background:new 0 0 80 80;" xml:space="preserve">
<style type="text/css">
	.st0{fill:#DFB52E;}
	.st1{fill:#1A1A1A;}
	.st2{fill:#030301;}
</style>
<g>
	<path class="st0" d="M75.3,43.7c0,6-1.5,11.7-4.1,16.7c-6,11.3-17.9,19-31.5,19c-13.6,0-25.4-7.6-31.4-18.7C5.5,55.6,4,49.9,4,43.7
		c0-13.7,7.7-25.5,18.9-31.5c0.3-0.2,0.6-0.3,0.9-0.5c0.1-0.1,0.2-0.1,0.3-0.2c4.7-2.3,10-3.5,15.5-3.5c4.6,0,8.9,0.9,13,2.4
		C65.9,15.7,75.3,28.6,75.3,43.7z"/>
	<path class="st1" d="M71.2,60.4c-6,11.3-17.9,19-31.5,19c-13.6,0-25.4-7.6-31.4-18.7c0.7-0.7,1.4-1.3,2-1.7l4.1-2.2
		c0.9-0.4,1.7-0.8,2.3-1.2c4.3-2.7,8.7-5,13-7.7c0.1,0,0.1,0,0.2,0c0.1,0,0.2-0.1,0.2-0.3c0.1-0.6,0.2-1.1,0.1-1.7
		c0-0.8,0-1.6,0-2.4c0-0.6-0.1-1.2-0.1-1.9c0-0.2-0.1-0.3-0.2-0.4c-0.4-0.4-0.7-0.9-0.9-1.4c-0.2-0.4-0.3-0.8-0.4-1.2
		c0-0.1,0-0.1,0-0.2c-0.1-0.4-0.2-0.8-0.3-1.2c-0.1-0.4-0.1-0.8-0.2-1.2c0-0.2-0.1-0.3-0.2-0.5c-0.1-0.1-0.2-0.2-0.4-0.2
		c-0.1,0-0.2,0-0.3-0.1c-0.5-0.1-0.8-0.4-1-0.9c-0.1-0.1-0.1-0.2-0.1-0.4c-0.1-0.4-0.3-0.8-0.4-1.3c-0.1-0.2-0.2-0.4-0.2-0.5
		c0,0,0-0.1,0-0.1c-0.2-0.4-0.4-0.9-0.6-1.3c-0.1-0.3-0.2-0.7-0.4-1c-0.2-0.5-0.4-1-0.5-1.5c-0.1-0.5-0.2-1.1-0.1-1.6
		c0-0.2,0.1-0.5,0.1-0.7c0-0.1,0.1-0.3,0.2-0.4c0.2-0.3,0.5-0.4,0.8-0.4c0.3,0.1,0.5,0.2,0.8,0.3c0.1,0,0.1,0.1,0.2,0.1
		c0.1,0.1,0.2,0,0.3-0.1c0-0.1,0-0.2,0-0.3c0-0.1,0-0.2-0.1-0.3c-0.1-0.4-0.2-0.9-0.3-1.3c-0.1-0.6-0.2-1.2-0.3-1.7
		c-0.1-0.5-0.2-1-0.2-1.5c0-0.2,0-0.4,0-0.6c0-0.1,0-0.2-0.1-0.3c-0.1-0.1-0.1-0.2-0.1-0.4c0-0.1,0-0.1,0-0.2c0.1-0.3,0-0.5-0.1-0.8
		c-0.3-0.8-0.5-1.6-0.8-2.3c0-0.1-0.1-0.3,0-0.4c0.2-0.5,0.1-1-0.1-1.5c0-0.1,0-0.1,0-0.2c0-0.2-0.1-0.3-0.2-0.4
		c-0.1-0.1-0.2-0.2-0.2-0.4c-0.1-0.3-0.2-0.5-0.5-0.6c-0.1-0.1-0.2-0.1-0.2-0.2c0,0,0,0,0,0c-0.1-0.2-0.2-0.3-0.4-0.4
		c-0.1-0.1-0.1-0.1-0.2-0.2c-0.2-0.2-0.2-0.5-0.1-0.8c0,0,0.1-0.1,0.1-0.2c0.1,0.1,0.2,0.3,0.2,0.4c0,0.1,0,0.1,0.1,0.2
		c0.1,0.3,0.2,0.3,0.5,0.2c0.1,0,0.1,0,0.2-0.1c0.2-0.1,0.3,0,0.4,0.1c0,0.1,0.1,0.2,0.1,0.2c0,0,0,0,0,0.1c0,0.1,0.1,0.2,0.1,0.2
		c0.1,0,0.1-0.1,0.1-0.2c0-0.1,0-0.1,0-0.2c0-0.1,0-0.1,0-0.2c0-0.1,0-0.1,0-0.2c-0.1-0.2-0.1-0.4,0-0.6c0-0.2,0-0.4,0-0.6
		c0-0.2,0-0.3-0.1-0.5c0-0.2,0-0.4,0.1-0.5c0.1-0.3,0.2-0.6,0.2-0.9c0-0.2,0.1-0.5,0.2-0.7c0,0,0-0.1,0.1-0.1
		c0.1-0.2,0.2-0.4,0.2-0.6c0-0.1,0.1-0.2,0.2-0.1c0.2,0.1,0.2,0,0.3-0.1c0.1-0.2,0.3-0.4,0.4-0.6c0.1-0.2,0.3-0.3,0.5-0.4
		c0.2-0.1,0.5-0.2,0.8-0.2c0.1,0,0.2,0,0.3-0.1c0.2-0.1,0.4-0.3,0.6-0.5c0.3-0.3,0.6-0.6,0.9-0.9c0,0,0.1-0.1,0.1-0.2
		c0.1-0.7,0.5-1.1,1.1-1.5c0.2-0.1,0.4-0.2,0.6-0.2c0.2,0,0.3-0.1,0.4-0.2c0.1-0.1,0.3-0.3,0.4-0.4c0.1-0.1,0.3-0.2,0.4-0.3
		c0.3-0.2,0.5-0.2,0.8-0.1c0.1,0,0.1,0.1,0,0.1c-0.1,0.1-0.1,0.1-0.2,0.2c-0.1,0.1-0.2,0.2-0.2,0.3c0,0,0.1,0,0.1,0
		c0.1,0,0.2-0.1,0.3-0.1c0.2-0.1,0.5-0.3,0.7-0.4c0.2-0.1,0.3-0.1,0.5,0c0.1,0.1,0.2,0,0.2,0c0.1,0,0.2-0.1,0.3-0.1
		c0.1-0.1,0.3-0.1,0.4-0.2c0.1,0,0.3-0.1,0.4-0.2c0.2-0.1,0.3-0.2,0.5-0.2c0.2-0.1,0.4-0.1,0.5,0c0.2,0.1,0.4,0.1,0.7,0.1
		c0.2,0,0.5,0,0.7,0c0.1,0,0.2,0,0.3,0c0.2,0,0.3,0.1,0.4,0.3c0,0,0,0,0,0c0.1,0.2,0.3,0.2,0.5,0.1c0.1,0,0.2-0.1,0.3-0.1
		c0.2,0,0.4,0.1,0.6,0.2c0.2,0.1,0.3,0.2,0.5,0.3c0.5,0.1,0.9,0.2,1.4,0.3c0.2,0,0.3,0.1,0.4,0.3C41.9,2.3,42,2.4,42,2.5
		c0.1,0.2,0.3,0.4,0.5,0.5c0.2,0.1,0.4,0.2,0.6,0.3c0.1,0.1,0.2,0.1,0.3,0.1c0.4,0,0.8,0.1,1.2,0.3c0.2,0.1,0.4,0.3,0.6,0.5
		c0,0,0.1,0.1,0.1,0.1c0.1,0.1,0.1,0.1,0.2,0.1c0.3-0.1,0.6,0,0.9,0.2c0.1,0.1,0.1,0.1,0.2,0.2c0.2,0.2,0.4,0.4,0.7,0.6
		c0.1,0.1,0.2,0.1,0.3,0.2c0.2,0.1,0.4,0.2,0.6,0.3C48.6,6,48.9,6.3,49,6.7c0,0.1,0.1,0.2,0.2,0.2C49.3,7,49.4,7,49.5,7.1
		c0.2,0.1,0.4,0.2,0.7,0.3c0.2,0.1,0.3,0.1,0.5,0.2c0.3,0.1,0.5,0.2,0.5,0.6c0,0.2,0.1,0.3,0.2,0.4c0.3,0.3,0.5,0.7,0.5,1.1
		c0,0.2,0.1,0.3,0.3,0.3c0.2,0.1,0.3,0.3,0.4,0.5c0,0,0,0,0,0c0.1,0.1,0.1,0.3,0.1,0.4c0,0.1,0.1,0.2,0.2,0.3
		c0.2,0.1,0.3,0.3,0.4,0.6c0.1,0.3,0.2,0.6,0.3,0.9c0,0.2,0,0.5-0.1,0.7c-0.1,0.1-0.1,0.2,0,0.4c0.1,0.3,0,0.6,0,0.8
		c0,0.2-0.1,0.3-0.1,0.5c-0.1,0.3-0.2,0.6-0.4,0.9c0,0,0,0.1,0,0.1c0.1,0.2,0.1,0.4,0.1,0.6c0,0.3,0.1,0.6,0.1,0.8
		c0,0.4,0,0.9,0,1.3c0,0.2,0,0.5-0.1,0.7c0,0.1,0,0.1,0,0.2c0,0.3,0,0.6,0,0.8c0,0.7-0.2,1.3-0.3,2c-0.1,0.5-0.2,1-0.3,1.5
		c0,0.4-0.1,0.8-0.1,1.2c0,0.1,0,0.1,0.1,0.1c0,0,0.1,0,0.1,0c0.1-0.1,0.3-0.2,0.4-0.3c0.1-0.2,0.3-0.3,0.5-0.4
		c0.2,0,0.3-0.1,0.5-0.1c0.2,0,0.3,0.1,0.4,0.2c0.2,0.2,0.3,0.4,0.2,0.7c0,0.3,0,0.6-0.1,0.9c-0.1,0.7-0.1,1.3-0.2,2
		c0,0.3-0.1,0.6-0.2,0.8c-0.1,0.2-0.2,0.4-0.3,0.6c-0.1,0.1-0.1,0.1-0.1,0.2c0,0.2,0,0.4-0.1,0.6c-0.3,1.1-0.7,2.2-1,3.3
		c-0.1,0.4-0.4,0.7-0.8,0.8c-0.4,0.1-0.6,0.3-0.7,0.7c0,0.2-0.1,0.3-0.1,0.5c-0.1,0.7-0.2,1.4-0.4,2.1c-0.1,0.4-0.2,0.8-0.4,1.2
		c-0.1,0.1-0.1,0.3-0.2,0.4c0,0.1-0.1,0.2-0.2,0.3c-0.1,0.1-0.1,0.1-0.2,0.2c-0.1,0.4-0.4,0.7-0.6,1c-0.2,0.3-0.5,0.6-0.8,0.8
		c-0.1,0.1-0.1,0.2-0.1,0.3c0,1.4,0,2.8,0,4.2c0,0.3,0,0.5,0.1,0.7c0.1,0.4,0.4,0.7,0.8,0.9c0.1,0,0.1,0.1,0.2,0.1
		c1.6,0.6,3.1,1.9,4.6,2.7c2.4,1.4,4.8,2.8,7.3,4.1c0.6,0.3,1.7,0.7,2.9,1.1C65.2,56.5,68.7,57.9,71.2,60.4z"/>
</g>
</svg>
