<?xml version="1.0" encoding="utf-8"?>
<!-- Generator: Adobe Illustrator 27.5.0, SVG Export Plug-In . SVG Version: 6.00 Build 0)  -->
<svg version="1.1" id="Layer_1" xmlns="http://www.w3.org/2000/svg" xmlns:xlink="http://www.w3.org/1999/xlink" x="0px" y="0px"
	 viewBox="0 0 80 80" style="enable-background:new 0 0 80 80;" xml:space="preserve">
<style type="text/css">
	.st0{fill:#DFB52E;}
	.st1{fill:#1A1A1A;}
	.st2{fill:#030301;}
</style>
<g>
	<path class="st0" d="M75.8,43.2c0,4.5-0.8,8.9-2.4,12.9c-0.5,1.4-1.2,2.8-1.9,4.1c-6.1,11.5-18.1,19.3-32,19.3
		c-13.8,0-25.7-7.7-31.9-19c-0.8-1.4-1.4-2.8-2-4.3c-1.5-4-2.4-8.3-2.4-12.9c0-13.9,7.8-25.9,19.2-32c0.3-0.2,0.6-0.3,0.9-0.5
		c0.1-0.1,0.2-0.1,0.3-0.2c1.6-0.8,3.2-1.4,4.9-1.9C32.2,7.6,35.8,7,39.6,7c3.8,0,7.5,0.6,10.9,1.7c0.8,0.2,1.5,0.5,2.2,0.8
		C66.3,14.7,75.8,27.9,75.8,43.2z"/>
	<path class="st2" d="M73.5,51.7v4.3c-0.5,1.4-1.2,2.8-1.9,4.1c-6.1,11.5-18.1,19.3-32,19.3c-13.8,0-25.7-7.7-31.9-19
		c-0.8-1.4-1.4-2.8-2-4.3c0-0.3,0-0.5,0-0.8v-1.1c0.3-3.8,3.3-5.7,3.3-5.7c1.8-1,3.8-1.7,5-2.3c1.9-1,3.9-2,5.8-2.9l0.2-1.2
		c0-0.1,0.1-0.1,0.1-0.2c0.1-0.1,0.1-0.2,0.2-0.3c0.4-0.8,0.8-1.7,1.2-2.5c0.3-0.7,0.6-1.4,0.9-2.1c0.1-0.3,0.2-0.7,0.3-1
		c0.3-1,0.6-2,0.9-3c0.1-0.5,0.2-0.9,0.3-1.4c0.3-1.2,0.5-2.4,0.8-3.7c0.1-0.6,0.2-1.2,0.3-1.7c0-0.4,0.1-0.8,0.2-1.2
		c0.2-1.1,0.4-2.2,0.6-3.4c0.1-0.6,0.2-1.2,0.3-1.8c0.1-0.4,0.1-0.8,0.1-1.2c0.1-0.5,0.1-1.1,0.2-1.6c0-0.4,0.1-0.8,0.1-1.2
		c0-0.2,0.1-0.4,0.1-0.7c0-0.2,0-0.3,0.1-0.4c0.1-0.1,0.1-0.2,0.1-0.2c0.2-0.9,0.3-1.8,0.6-2.6c0.3-1.1,0.8-2.2,1.3-3.2
		C28.9,8.4,29,8.2,29.2,8c0.1-0.1,0.1-0.2,0.2-0.3c0.1-0.3,0.3-0.6,0.5-0.8C29.9,6.9,30,6.8,30,6.7c1.1-1.7,2.5-3,4.3-4
		c0.2-0.1,0.3-0.2,0.5-0.3c0.4-0.3,0.9-0.4,1.4-0.5c0.5-0.1,1-0.2,1.5-0.2c0.3,0,0.7-0.1,1-0.1c0.1,0,0.3-0.1,0.4-0.1
		c0.3-0.1,0.7-0.2,1.1-0.2c0.5,0,0.9,0.1,1.4,0.1c0.3,0.1,0.6,0.1,0.9,0.2c0.2,0,0.3,0.1,0.4,0.2C42.9,1.9,43,2,43.2,1.9
		c0.1,0,0.2,0,0.2,0.1c0.1,0.1,0.3,0.1,0.4,0.2c0.7,0.2,1.3,0.5,1.9,0.9c0.5,0.4,1,0.8,1.5,1.2c0.5,0.5,0.9,0.9,1.4,1.4
		c0.1,0.1,0.1,0.1,0.2,0.2c0.3,0.4,0.6,0.8,0.9,1.2c0.4,0.5,0.7,1,0.9,1.6c0.1,0.2,0.1,0.3,0.2,0.5c0,0.1,0.1,0.2,0.1,0.3
		c0.1,0.3,0.3,0.7,0.4,1c0.2,0.4,0.3,0.8,0.4,1.3c0.1,0.3,0.2,0.7,0.3,1c0.2,0.7,0.4,1.5,0.5,2.3c0.1,0.8,0.2,1.6,0.3,2.4
		c0.1,0.7,0.2,1.4,0.3,2.1c0.1,0.8,0.2,1.5,0.2,2.3c0.1,0.8,0.1,1.5,0,2.3c0,1,0,1.9,0.1,2.9c0.2,1.3,0.4,2.6,0.7,3.9
		c0.2,1,0.4,2,0.6,3c0.1,0.5,0.1,0.9,0.2,1.4c0,0.3,0.1,0.6,0.2,0.9c0.2,0.8,0.5,1.5,0.7,2.2c0.3,0.7,0.5,1.3,0.8,2
		c0.1,0.2,0.1,0.3,0.1,0.5c0,0.1,0,0.2,0.1,0.2c0.1,0.2,0.2,0.4,0.3,0.6c0.2,0.2,0.3,0.5,0.5,0.7c0,0,0,0,0,0l0.6,0.4c0,0,0,0,0,0
		c0,0,0,0,0,0c1.8,0.7,3.6,1.4,5.5,2.1c1.6,0.6,3.2,0.9,4.7,1.6c0.1,0.1,0.3,0.1,0.4,0.2C70.7,47.6,73.2,49.5,73.5,51.7z"/>
</g>
</svg>
