<?xml version="1.0" encoding="utf-8"?>
<!-- Generator: Adobe Illustrator 27.5.0, SVG Export Plug-In . SVG Version: 6.00 Build 0)  -->
<svg version="1.1" id="Layer_1" xmlns="http://www.w3.org/2000/svg" xmlns:xlink="http://www.w3.org/1999/xlink" x="0px" y="0px"
	 viewBox="0 0 80 80" style="enable-background:new 0 0 80 80;" xml:space="preserve">
<style type="text/css">
	.st0{fill:#DFB52E;}
	.st1{fill:#1A1A1A;}
	.st2{fill:#030301;}
</style>
<g>
	<path class="st0" d="M75.3,43.7c0,6.7-1.9,13-5.1,18.4C64,72.5,52.6,79.4,39.7,79.4c-13.5,0-25.2-7.5-31.3-18.6
		C5.6,55.8,4,49.9,4,43.7c0-15.3,9.6-28.3,23.1-33.4c3.9-1.5,8.1-2.3,12.6-2.3c4.6,0,9,0.9,13,2.4C65.9,15.7,75.3,28.6,75.3,43.7z"
		/>
	<path class="st1" d="M70.2,62.1C64,72.5,52.6,79.4,39.7,79.4c-13.5,0-25.2-7.5-31.3-18.6c2.6-4.1,9.3-4.1,13.2-6.2
		c2.9-1.5,5.5-3.7,7.6-6.2c0.8-1,1.3-2.3,1.6-3.6c0.1-0.2,0.1-0.4,0.1-0.6c0-0.2,0.1-0.3,0.1-0.5c0-0.3,0-0.7,0.1-1
		c0.1-1,0.1-2,0.1-3c0-0.2,0-0.4-0.1-0.6c0-0.1,0-0.3,0-0.4c0,0,0,0,0,0c0,0,0,0,0,0C31,38,30.5,37,30.3,36.7c-0.8-1-1.3-2-1.5-3.3
		c-0.2-1.1-0.2-2.1-0.9-3.1c-0.3-0.4-0.6-0.8-0.9-1.2c-0.7-0.8-1.2-1.8-1.5-2.8c0-0.2-0.1-0.3-0.2-0.5c-0.1-0.3-0.1-0.5-0.2-0.8
		c0-0.2,0-0.3,0-0.5c0-0.2,0-0.4,0-0.6c-0.1-0.4-0.1-0.7-0.1-1.1c0-0.3-0.1-0.7-0.1-1c-0.1-0.3-0.1-0.5,0-0.8c0-0.3,0-0.6,0.1-0.8
		c0.1-0.2,0.2-0.4,0.3-0.5c0.2-0.2,0.3-0.5,0.4-0.8c0-0.2,0-0.5-0.1-0.7c-0.1-0.2-0.2-0.5-0.1-0.8c0-0.2,0.1-0.4,0.2-0.7
		c0.1-0.3,0.2-0.7,0.3-1c0-0.1,0-0.2,0-0.3c0-0.3,0-0.6,0-0.9c0-0.4,0-0.8,0-1.2c0-0.4,0.1-0.8,0.3-1.2c0.1-0.3,0.3-0.7,0.4-1
		c0.1-0.2,0.1-0.3,0.2-0.5c0-0.1,0.1-0.2,0.2-0.3c0.1-0.1,0.2-0.3,0.3-0.4c0.2-0.2,0.3-0.4,0.4-0.7c0-0.1,0-0.2,0-0.3
		c0-0.1-0.1-0.2-0.1-0.3c-0.1-0.1-0.1-0.3,0-0.4C27.8,8,27.9,7.8,28,7.5c0.1-0.1,0.2-0.3,0.3-0.4c0.1-0.2,0.3-0.3,0.4-0.5
		c0.3-0.4,0.6-0.7,0.9-1.1c0.1-0.1,0.2-0.1,0.2-0.2c0.1-0.1,0.1-0.1,0.3-0.2c0,0,0.1,0,0.1,0c0.1,0,0.1,0,0.1-0.1
		c0.2-0.4,0.5-0.7,0.8-1c0.4-0.3,0.8-0.6,1.3-1c0.5-0.4,1.1-0.7,1.7-1c0.1,0,0.2-0.1,0.3,0c0.1,0,0.1,0,0.2,0
		c0.1-0.2,0.3-0.2,0.5-0.2c0.1,0,0.3-0.1,0.4-0.1c0.6-0.2,1.3-0.4,1.9-0.4c0.7,0,1.4,0.1,2.1,0.4c0.2,0.1,0.5,0.1,0.7,0.1
		c0.3,0,0.5-0.1,0.8-0.3c0.7-0.4,1.5-0.4,2.3-0.1c0.1,0,0.2,0.1,0.3,0.1c0.1,0,0.3,0,0.4,0.1c0.1,0,0.2,0.1,0.3,0.1
		c0.2,0,0.3,0,0.4,0.1c0,0,0.1,0,0.1,0c0.5,0.1,1,0.3,1.4,0.6c0.1,0.1,0.2,0.1,0.3,0.1c0.3,0.1,0.6,0.3,0.9,0.4
		c0.3,0.2,0.5,0.4,0.8,0.6c0.5,0.5,1,1,1.5,1.6c0,0,0.1,0.1,0.1,0.1c0.3,0.2,0.6,0.5,0.8,0.9c0,0,0.1,0.1,0.1,0.1
		c0.3,0.3,0.5,0.6,0.6,1c0.3,0.6,0.6,1.3,0.9,1.9c0.2,0.4,0.3,0.9,0.3,1.3c0,0.1,0,0.1,0,0.2c0,0.3,0.1,0.6,0.1,0.9
		c0,0.2,0.1,0.4,0.2,0.6c0.2,0.4,0.3,0.8,0.3,1.1c0.1,0.4,0.1,0.8,0.1,1.2c0,0.3,0.1,0.7,0.2,1c0.1,0.3,0.1,0.7,0.1,1
		c0,0.4,0,0.8,0,1.2c0,0.1,0,0.1,0,0.2c0.2,0.4,0.1,0.7,0,1.1c0,0.1-0.1,0.3-0.1,0.4c-0.1,0.3,0,0.5,0.1,0.7
		c0.1,0.1,0.1,0.2,0.2,0.3c0.1,0.2,0.2,0.4,0.3,0.6c0.1,0.3,0.2,0.7,0,1c-0.1,0.1-0.1,0.3-0.1,0.4c0,0.4-0.2,0.7-0.2,1
		c-0.1,0.4-0.1,0.8-0.2,1.2c-0.1,0.5-0.1,1-0.2,1.6c0,0.1,0,0.2-0.1,0.3c-0.1,0.1-0.1,0.2-0.1,0.3c-0.1,0.4-0.3,0.8-0.4,1.2
		c-0.1,0.3-0.3,0.5-0.4,0.8c-0.1,0.2-0.2,0.4-0.4,0.6c-0.5,0.7-1.2,1.2-1.5,2c-0.4,1-0.6,2-0.8,3.1c-0.2,1-0.6,1.9-1.3,2.7
		c-0.1,0.1-0.2,0.2-0.3,0.3c-0.1,0.1-0.2,0.3-0.3,0.4c-0.1,0.1-0.1,0.2-0.2,0.3c0,0.1-0.1,0.4-0.1,0.5c0,0.3-0.1,0.7-0.1,1
		c-0.1,1.5-0.1,2.9,0,4.4c0,0.6,0.1,1.1,0.2,1.7c0.2,1.4,0.8,2.7,1.7,3.9c1.9,2.3,4.8,3.7,7.4,5.1c2.6,1.5,6.6,2.9,9.4,4
		C66.1,58.4,68.6,59.6,70.2,62.1z"/>
</g>
</svg>
