<?xml version="1.0" encoding="utf-8"?>
<!-- Generator: Adobe Illustrator 27.5.0, SVG Export Plug-In . SVG Version: 6.00 Build 0)  -->
<svg version="1.1" id="Calque_1" xmlns="http://www.w3.org/2000/svg" xmlns:xlink="http://www.w3.org/1999/xlink" x="0px" y="0px"
	 viewBox="0 0 90 90" style="enable-background:new 0 0 90 90;" xml:space="preserve">
<style type="text/css">
	.st0{fill:none;stroke:#DFB52E;stroke-width:3;stroke-linejoin:round;stroke-miterlimit:10;}
	.st1{fill:none;stroke:#DFB52E;stroke-width:3;stroke-miterlimit:10;}
</style>
<g>
	<polygon class="st0" points="86.8,15.6 60.9,5.6 31.1,13.6 3.2,3.9 3.2,73.5 31.1,83.2 60.9,75.2 86.8,87.2 	"/>
	<line class="st0" x1="41" y1="39.4" x2="25.1" y2="23.5"/>
	<line class="st0" x1="25.1" y1="39.4" x2="41" y2="23.5"/>
	<line class="st1" x1="41" y1="51.4" x2="31.1" y2="51.4"/>
	<path class="st1" d="M66.8,43.4c0,5-3.2,8-8,8"/>
	<path class="st1" d="M66.8,39.4c0-5-3.2-8-8-8"/>
	<path class="st1" d="M19.1,59.3c0-5,3.2-8,8-8"/>
	<line class="st1" x1="55" y1="51.4" x2="45" y2="51.4"/>
	<line class="st1" x1="45" y1="31.5" x2="55" y2="31.5"/>
	<line class="st1" x1="19.1" y1="63.3" x2="19.1" y2="71.3"/>
</g>
</svg>
