<?xml version="1.0" encoding="utf-8"?>
<!-- Generator: Adobe Illustrator 27.5.0, SVG Export Plug-In . SVG Version: 6.00 Build 0)  -->
<svg version="1.1" id="Calque_1" xmlns="http://www.w3.org/2000/svg" xmlns:xlink="http://www.w3.org/1999/xlink" x="0px" y="0px"
	 viewBox="0 0 90 90" style="enable-background:new 0 0 90 90;" xml:space="preserve">
<style type="text/css">
	.st0{fill:none;stroke:#DFB52E;stroke-width:3;stroke-linecap:round;stroke-linejoin:round;stroke-miterlimit:10;}
</style>
<path class="st0" d="M27.2,44.3c0-8.2,6.6-14.8,14.8-14.8 M42,84.3V73.9 M42,14.7V4.3 M13.7,16l7.3,7.3 M12.4,44.3H2 M21.1,65.2
	l-7.4,7.3 M76.1,42.8h7.4 M76.1,33.9H88 M76.1,25h7.4 M76.1,16.1H88 M62.7,29.4v25.2 M70.2,62.1c0-4.1-3.3-7.4-7.4-7.4
	s-7.4,3.3-7.4,7.4s3.3,7.4,7.4,7.4S70.2,66.2,70.2,62.1z M55.3,47.6c-5.3,2.7-8.9,8.2-8.9,14.5c0,9,7.3,16.3,16.3,16.3
	s16.3-7.3,16.3-16.3c0-6.4-3.6-11.8-8.9-14.5V17.6c0-4.1-3.4-7.4-7.4-7.4l0,0c-4.1,0-7.4,3.4-7.4,7.4v29.9H55.3z M55.3,26.5
	c-3.7-2.8-8.3-4.4-13.3-4.4c-12.3,0-22.2,10-22.2,22.2s10,22.2,22.2,22.2c1.7,0,3.4-0.2,4.9-0.5"/>
</svg>
