<?xml version="1.0" encoding="utf-8"?>
<!-- Generator: Adobe Illustrator 27.5.0, SVG Export Plug-In . SVG Version: 6.00 Build 0)  -->
<svg version="1.1" id="Calque_1" xmlns="http://www.w3.org/2000/svg" xmlns:xlink="http://www.w3.org/1999/xlink" x="0px" y="0px"
	 viewBox="0 0 150 150" style="enable-background:new 0 0 150 150;" xml:space="preserve">
<style type="text/css">
	.st0{fill:#FFFFFF;stroke:#DFB52E;stroke-width:5.2517;stroke-linecap:round;stroke-linejoin:round;stroke-miterlimit:10;}
	.st1{fill:#DFB52E;}
	.st2{fill:#575756;}
	.st3{fill:none;stroke:#DFB52E;stroke-width:5;stroke-linecap:round;stroke-linejoin:round;stroke-miterlimit:10;}
	.st4{fill:none;stroke:#DFB52E;stroke-width:5;stroke-linejoin:round;stroke-miterlimit:10;}
	.st5{fill:none;stroke:#DFB52E;stroke-width:5;stroke-miterlimit:10;}
</style>
<path class="st3" d="M45,73.8C45,60.2,56,49.1,69.7,49.1 M69.7,140.5v-17.3 M69.7,24.5V7.2 M22.5,26.7l12.2,12.2 M20.3,73.8H3
	 M34.8,108.8L22.5,121 M126.5,71.4h12.3 M126.5,56.6h19.8 M126.5,41.7h12.3 M126.5,26.9h19.8 M104.2,49.1v42 M116.6,103.5
	c0-6.8-5.5-12.3-12.3-12.3s-12.3,5.5-12.3,12.3s5.5,12.3,12.3,12.3S116.6,110.3,116.6,103.5z M91.9,79.3
	c-8.8,4.5-14.8,13.6-14.8,24.2c0,15,12.2,27.2,27.2,27.2s27.2-12.2,27.2-27.2c0-10.6-6-19.7-14.8-24.2V29.4
	c0-6.8-5.6-12.3-12.3-12.3l0,0c-6.8,0-12.3,5.6-12.3,12.3V79.3z M91.9,44.2c-6.2-4.6-13.9-7.4-22.2-7.4c-20.5,0-37,16.6-37,37
	s16.6,37,37,37c2.8,0,5.6-0.3,8.2-0.9"/>
</svg>
