<?xml version="1.0" encoding="utf-8"?>
<!-- Generator: Adobe Illustrator 27.5.0, SVG Export Plug-In . SVG Version: 6.00 Build 0)  -->
<svg version="1.1" id="Calque_1" xmlns="http://www.w3.org/2000/svg" xmlns:xlink="http://www.w3.org/1999/xlink" x="0px" y="0px"
	 viewBox="0 0 90 90" style="enable-background:new 0 0 90 90;" xml:space="preserve">
<style type="text/css">
	.st0{fill:#FFFFFF;stroke:#DFB52E;stroke-width:3.151;stroke-linecap:round;stroke-linejoin:round;stroke-miterlimit:10;}
	.st1{fill:#DFB52E;}
	.st2{fill:#575756;}
</style>
<g>
	<g>
		<g>
			<path class="st0" d="M7.4,55.7c2.3-1.1,5.1-0.2,6.2,2.2s0.2,5.1-2.2,6.2l5,10.3c0.8,1.8,3,2.5,4.8,1.6l64.1-31.4
				c1.8-0.8,2.5-3,1.6-4.8l-5-10.3c-0.1,0-0.1,0.1-0.1,0.1c-2.3,1.1-5.1,0.2-6.2-2.2s-0.2-5.1,2.2-6.2c0.1,0,0.1,0,0.1-0.1l-5-10.3
				c-0.8-1.8-3-2.5-4.8-1.6L4,40.7c-1.8,0.8-2.5,3-1.6,4.8L7.4,55.7z"/>
		</g>
		<g>
			<rect x="60" y="14.1" transform="matrix(0.898 -0.4401 0.4401 0.898 -0.8877 28.4689)" class="st1" width="1.9" height="4.1"/>
		</g>
		<g>
			<rect x="67.3" y="29" transform="matrix(0.8981 -0.4398 0.4398 0.8981 -6.7121 33.1937)" class="st1" width="1.9" height="4.1"/>
		</g>
		<g>
			<rect x="71" y="36.4" transform="matrix(0.898 -0.44 0.44 0.898 -9.6099 35.5754)" class="st1" width="1.9" height="4.1"/>
		</g>
		<g>
			
				<rect x="74.7" y="43.9" transform="matrix(0.8981 -0.4399 0.4399 0.8981 -12.5308 37.9482)" class="st2" width="1.9" height="4.1"/>
		</g>
		<g>
			
				<rect x="63.7" y="21.6" transform="matrix(0.8981 -0.4399 0.4399 0.8981 -3.8108 30.8368)" class="st1" width="1.9" height="4.1"/>
		</g>
		<g>
			<g>
				<polygon class="st2" points="23.4,50.3 26.2,56.2 27.9,55.4 25,49.5 27,48.5 26.4,47.1 20.8,49.8 21.4,51.2 				"/>
				
					<rect x="29.3" y="45.7" transform="matrix(0.8981 -0.4399 0.4399 0.8981 -18.8011 18.3806)" class="st2" width="1.9" height="8.1"/>
				<path class="st2" d="M38,50.6c0.9-0.4,1.5-0.9,1.7-1.2l-0.9-1.2c-0.2,0.3-0.8,0.7-1.3,0.9c-1.4,0.7-2.8,0.2-3.5-1.3
					c-0.8-1.6-0.2-2.9,1.1-3.5c0.6-0.3,1.1-0.4,1.5-0.4l-0.3-1.4c-0.4,0-1.1,0.1-1.9,0.5c-2.2,1.1-3.3,3.3-2.1,5.8
					C33.4,50.9,35.5,51.8,38,50.6z"/>
				<path class="st1" d="M41.4,39.8L40.9,43c-0.1,0.4-0.1,0.7-0.1,1h-0.1l-1.6-3.2l-1.6,0.8l3.5,7.3l1.6-0.8l-1.1-2.4l0.2-1.1
					l3.3,2.3l1.9-1l-4.6-2.9l0.9-4.3L41.4,39.8z"/>
				<polygon class="st1" points="49.1,36 44.6,38.2 48.2,45.5 52.8,43.2 52.2,41.8 49.2,43.3 48.3,41.6 51,40.2 50.4,38.9 
					47.7,40.2 46.9,38.7 49.8,37.3 				"/>
				<polygon class="st1" points="56.2,32.5 50.6,35.3 51.3,36.6 53.2,35.7 56.1,41.6 57.7,40.8 54.9,34.8 56.8,33.9 				"/>
			</g>
			<g>
				
					<rect x="20.3" y="52.8" transform="matrix(0.898 -0.4399 0.4399 0.898 -19.0981 25.1191)" class="st2" width="48.7" height="1.9"/>
			</g>
			<g>
				
					<rect x="11.5" y="35" transform="matrix(0.898 -0.4399 0.4399 0.898 -12.1267 19.4423)" class="st1" width="48.7" height="1.9"/>
			</g>
		</g>
	</g>
	<g>
		<g>
			<path class="st0" d="M5.6,80.1h71.5c2,0,3.6-1.6,3.6-3.6V65.1c-0.1,0-0.1,0-0.1,0c-2.6,0-4.7-2.1-4.7-4.7s2.1-4.7,4.7-4.7
				c0.1,0,0.1,0,0.1,0V44.4c0-2-1.6-3.6-3.6-3.6H5.6c-2,0-3.6,1.6-3.6,3.6v11.4c2.6,0,4.7,2.1,4.7,4.7S4.6,65.1,2,65.1v11.4
				C2,78.5,3.6,80.1,5.6,80.1z"/>
		</g>
		<g>
			<rect x="66.6" y="41.8" class="st1" width="1.9" height="4.1"/>
		</g>
		<g>
			<rect x="66.6" y="58.4" class="st1" width="1.9" height="4.1"/>
		</g>
		<g>
			<rect x="66.6" y="66.7" class="st1" width="1.9" height="4.1"/>
		</g>
		<g>
			<rect x="66.6" y="75" class="st1" width="1.9" height="4.1"/>
		</g>
		<g>
			<rect x="66.6" y="50.1" class="st1" width="1.9" height="4.1"/>
		</g>
		<g>
			<g>
				<polygon class="st1" points="18.7,64.5 20.6,64.5 20.6,57.9 22.8,57.9 22.8,56.4 16.6,56.4 16.6,57.9 18.7,57.9 				"/>
				<rect x="24.3" y="56.4" class="st1" width="1.9" height="8.1"/>
				<path class="st1" d="M31.8,64.7c1,0,1.7-0.2,2.1-0.4l-0.3-1.4c-0.4,0.1-1,0.2-1.5,0.2c-1.6,0-2.6-1-2.6-2.6
					c0-1.8,1.1-2.7,2.6-2.7c0.7,0,1.1,0.1,1.6,0.3l0.4-1.4c-0.3-0.2-1-0.4-2-0.4c-2.5,0-4.4,1.6-4.4,4.3
					C27.6,62.9,29,64.7,31.8,64.7z"/>
				<path class="st1" d="M37.1,61.9l0.7-0.8l2,3.5H42l-2.8-4.6l2.7-3.4h-2.2l-1.9,2.7c-0.2,0.3-0.4,0.6-0.5,0.9h-0.1v-3.6h-1.8v8.1
					h1.8L37.1,61.9L37.1,61.9z"/>
				<polygon class="st1" points="48.1,57.9 48.1,56.4 43.2,56.4 43.2,64.5 48.3,64.5 48.3,63 45,63 45,61.1 48,61.1 48,59.6 
					45,59.6 45,57.9 				"/>
				<polygon class="st1" points="53.8,64.5 53.8,57.9 56.1,57.9 56.1,56.4 49.8,56.4 49.8,57.9 52,57.9 52,64.5 				"/>
			</g>
			<g>
				<rect x="12" y="69.5" class="st1" width="48.7" height="1.9"/>
			</g>
			<g>
				<rect x="12" y="49.6" class="st1" width="48.7" height="1.9"/>
			</g>
		</g>
	</g>
</g>
</svg>
