<?xml version="1.0" encoding="utf-8"?>
<!-- Generator: Adobe Illustrator 27.5.0, SVG Export Plug-In . SVG Version: 6.00 Build 0)  -->
<svg version="1.1" id="Calque_1" xmlns="http://www.w3.org/2000/svg" xmlns:xlink="http://www.w3.org/1999/xlink" x="0px" y="0px"
	 viewBox="0 0 150 150" style="enable-background:new 0 0 150 150;" xml:space="preserve">
<style type="text/css">
	.st0{fill:#FFFFFF;stroke:#DFB52E;stroke-width:5.2517;stroke-linecap:round;stroke-linejoin:round;stroke-miterlimit:10;}
	.st1{fill:#DFB52E;}
	.st2{fill:#575756;}
	.st3{fill:none;stroke:#DFB52E;stroke-width:5;stroke-linecap:round;stroke-linejoin:round;stroke-miterlimit:10;}
	.st4{fill:none;stroke:#DFB52E;stroke-width:5;stroke-linejoin:round;stroke-miterlimit:10;}
	.st5{fill:none;stroke:#DFB52E;stroke-width:5;stroke-miterlimit:10;}
</style>
<g>
	<polygon class="st4" points="144.6,26 101.5,9.4 51.8,22.7 5.4,6.5 5.4,122.5 51.8,138.6 101.5,125.4 144.6,145.3 	"/>
	<line class="st4" x1="68.4" y1="65.7" x2="41.9" y2="39.2"/>
	<line class="st4" x1="41.9" y1="65.7" x2="68.4" y2="39.2"/>
	<line class="st5" x1="68.4" y1="85.6" x2="51.8" y2="85.6"/>
	<path class="st5" d="M111.4,72.4c0,8.4-5.4,13.3-13.3,13.3"/>
	<path class="st5" d="M111.4,65.7c0-8.4-5.4-13.3-13.3-13.3"/>
	<path class="st5" d="M31.9,98.9c0-8.4,5.4-13.3,13.3-13.3"/>
	<line class="st5" x1="91.6" y1="85.6" x2="75" y2="85.6"/>
	<line class="st5" x1="75" y1="52.5" x2="91.6" y2="52.5"/>
	<line class="st5" x1="31.9" y1="105.5" x2="31.9" y2="118.8"/>
</g>
</svg>
