<?xml version="1.0" encoding="utf-8"?>
<!-- Generator: Adobe Illustrator 27.5.0, SVG Export Plug-In . SVG Version: 6.00 Build 0)  -->
<svg version="1.1" id="Calque_1" xmlns="http://www.w3.org/2000/svg" xmlns:xlink="http://www.w3.org/1999/xlink" x="0px" y="0px"
	 viewBox="0 0 150 150" style="enable-background:new 0 0 150 150;" xml:space="preserve">
<style type="text/css">
	.st0{fill:#FFFFFF;stroke:#DFB52E;stroke-width:5.2517;stroke-linecap:round;stroke-linejoin:round;stroke-miterlimit:10;}
	.st1{fill:#DFB52E;}
	.st2{fill:#575756;}
	.st3{fill:none;stroke:#DFB52E;stroke-width:5;stroke-linecap:round;stroke-linejoin:round;stroke-miterlimit:10;}
	.st4{fill:none;stroke:#DFB52E;stroke-width:5;stroke-linejoin:round;stroke-miterlimit:10;}
	.st5{fill:none;stroke:#DFB52E;stroke-width:5;stroke-miterlimit:10;}
</style>
<g>
	<g>
		<g>
			<path class="st0" d="M12.6,91.2c3.9-1.9,8.5-0.3,10.4,3.6c1.9,3.9,0.3,8.5-3.6,10.4l8.4,17.1c1.4,3,5,4.2,8,2.7l106.9-52.4
				c3-1.4,4.2-5,2.7-8l-8.4-17.1c-0.1,0-0.1,0.1-0.1,0.1c-3.9,1.9-8.5,0.3-10.4-3.6c-1.9-3.9-0.3-8.5,3.6-10.4c0.1,0,0.1,0,0.2-0.1
				l-8.4-17.1c-1.4-3-5-4.2-8-2.7L6.9,66.1c-3,1.4-4.2,5-2.7,8L12.6,91.2z"/>
		</g>
		<g>
			
				<rect x="100.3" y="21.8" transform="matrix(0.898 -0.4401 0.4401 0.898 -0.7412 47.3998)" class="st1" width="3.1" height="6.9"/>
		</g>
		<g>
			
				<rect x="112.5" y="46.7" transform="matrix(0.8981 -0.4398 0.4398 0.8981 -10.4397 55.2571)" class="st1" width="3.1" height="6.9"/>
		</g>
		<g>
			<rect x="118.6" y="59.1" transform="matrix(0.898 -0.44 0.44 0.898 -15.2862 59.2227)" class="st1" width="3.1" height="6.9"/>
		</g>
		<g>
			
				<rect x="124.7" y="71.6" transform="matrix(0.8981 -0.4399 0.4399 0.8981 -20.1322 63.1523)" class="st2" width="3.1" height="6.9"/>
		</g>
		<g>
			
				<rect x="106.4" y="34.3" transform="matrix(0.8981 -0.4399 0.4399 0.8981 -5.5932 51.32)" class="st1" width="3.1" height="6.9"/>
		</g>
		<g>
			<g>
				<polygon class="st2" points="39.2,82.1 44,92 46.8,90.6 42,80.8 45.3,79.2 44.2,76.9 34.9,81.4 36,83.7 				"/>
				
					<rect x="49.1" y="74.5" transform="matrix(0.8981 -0.4399 0.4399 0.8981 -30.5494 30.5681)" class="st2" width="3.1" height="13.5"/>
				<path class="st2" d="M63.6,82.6c1.5-0.7,2.5-1.5,2.9-2L65,78.6c-0.4,0.5-1.3,1.1-2.1,1.5c-2.4,1.2-4.6,0.4-5.8-2.1
					c-1.3-2.7-0.3-4.8,1.9-5.9c1-0.5,1.8-0.6,2.5-0.7L61,69c-0.6,0-1.8,0.2-3.2,0.9c-3.7,1.8-5.5,5.5-3.5,9.7
					C56,83.1,59.4,84.6,63.6,82.6z"/>
				<path class="st1" d="M69.2,64.6L68.4,70c-0.1,0.6-0.1,1.1-0.2,1.7l-0.1,0l-2.6-5.4l-2.7,1.3l5.9,12.1l2.7-1.3l-1.9-4l0.4-1.8
					l5.5,3.8l3.2-1.6l-7.6-4.9l1.5-7.1L69.2,64.6z"/>
				<polygon class="st1" points="82.1,58.3 74.6,62 80.6,74.1 88.3,70.3 87.2,68 82.2,70.5 80.8,67.6 85.3,65.4 84.2,63.2 
					79.7,65.4 78.5,62.9 83.2,60.5 				"/>
				<polygon class="st1" points="93.9,52.5 84.6,57.1 85.7,59.4 89,57.8 93.8,67.6 96.5,66.3 91.7,56.4 95,54.8 				"/>
			</g>
			<g>
				
					<rect x="34.1" y="86.4" transform="matrix(0.898 -0.4399 0.4399 0.898 -31.0699 41.7939)" class="st2" width="81.1" height="3.1"/>
			</g>
			<g>
				
					<rect x="19.5" y="56.6" transform="matrix(0.898 -0.4399 0.4399 0.898 -19.4513 32.3356)" class="st1" width="81.1" height="3.1"/>
			</g>
		</g>
	</g>
	<g>
		<g>
			<path class="st0" d="M9.6,131.9h119.1c3.3,0,6-2.7,6-6v-19c-0.1,0-0.1,0-0.2,0c-4.3,0-7.8-3.5-7.8-7.8c0-4.3,3.5-7.8,7.8-7.8
				c0.1,0,0.1,0,0.2,0v-19c0-3.3-2.7-6-6-6H9.6c-3.3,0-6,2.7-6,6v19c4.3,0,7.8,3.5,7.8,7.8c0,4.3-3.5,7.8-7.8,7.8v19
				C3.6,129.2,6.3,131.9,9.6,131.9z"/>
		</g>
		<g>
			<rect x="111.2" y="68" class="st1" width="3.1" height="6.9"/>
		</g>
		<g>
			<rect x="111.2" y="95.7" class="st1" width="3.1" height="6.9"/>
		</g>
		<g>
			<rect x="111.2" y="109.5" class="st1" width="3.1" height="6.9"/>
		</g>
		<g>
			<rect x="111.2" y="123.3" class="st1" width="3.1" height="6.9"/>
		</g>
		<g>
			<rect x="111.2" y="81.8" class="st1" width="3.1" height="6.9"/>
		</g>
		<g>
			<g>
				<polygon class="st1" points="31.5,105.9 34.6,105.9 34.6,94.9 38.3,94.9 38.3,92.4 27.9,92.4 27.9,94.9 31.5,94.9 				"/>
				<rect x="40.7" y="92.4" class="st1" width="3.1" height="13.5"/>
				<path class="st1" d="M53.3,106.1c1.6,0,2.9-0.3,3.5-0.6l-0.5-2.4c-0.6,0.2-1.6,0.4-2.5,0.4c-2.7,0-4.3-1.7-4.3-4.4
					c0-3,1.9-4.5,4.3-4.5c1.1,0,1.9,0.2,2.6,0.5l0.6-2.4c-0.5-0.3-1.7-0.6-3.3-0.6c-4.1,0-7.4,2.6-7.4,7.2
					C46.2,103.2,48.6,106.1,53.3,106.1z"/>
				<path class="st1" d="M62.1,101.5l1.2-1.4l3.3,5.8h3.6l-4.7-7.7l4.5-5.7h-3.7l-3.1,4.5c-0.3,0.5-0.6,1-0.9,1.5h-0.1v-6h-3v13.5h3
					V101.5z"/>
				<polygon class="st1" points="80.5,94.9 80.5,92.4 72.2,92.4 72.2,105.9 80.8,105.9 80.8,103.4 75.3,103.4 75.3,100.2 
					80.2,100.2 80.2,97.7 75.3,97.7 75.3,94.9 				"/>
				<polygon class="st1" points="90,105.9 90,94.9 93.7,94.9 93.7,92.4 83.3,92.4 83.3,94.9 86.9,94.9 86.9,105.9 				"/>
			</g>
			<g>
				<rect x="20.2" y="114.2" class="st1" width="81.1" height="3.1"/>
			</g>
			<g>
				<rect x="20.2" y="81" class="st1" width="81.1" height="3.1"/>
			</g>
		</g>
	</g>
</g>
</svg>
