<?xml version="1.0" encoding="utf-8"?>
<!-- Generator: Adobe Illustrator 27.5.0, SVG Export Plug-In . SVG Version: 6.00 Build 0)  -->
<svg version="1.1" id="Calque_1" xmlns="http://www.w3.org/2000/svg" xmlns:xlink="http://www.w3.org/1999/xlink" x="0px" y="0px"
	 viewBox="0 0 156 147.2" style="enable-background:new 0 0 156 147.2;" xml:space="preserve">
<style type="text/css">
	.st0{fill:#141414;}
</style>
<g>
	<path class="st0" d="M152.6,71.5H2.5v-0.4h150.1L152.6,71.5L152.6,71.5z M152.6,94.2H2.5v0.4h150.1L152.6,94.2L152.6,94.2z"/>
	<g>
		<g>
			<polygon class="st0" points="36.2,17.3 36.2,14.1 2.6,14.1 32,64.9 35.7,64.9 8.3,17.3 			"/>
			<polygon class="st0" points="118.9,14.1 118.9,17.3 146.9,17.3 119.4,64.9 123.2,64.9 152.6,14.1 			"/>
		</g>
		<polygon class="st0" points="94.8,107.5 77.6,137.4 60.3,107.5 56.6,107.5 77.6,143.9 98.6,107.5 		"/>
	</g>
	<g>
		<path class="st0" d="M22.9,45.9c0,0,6.2-4.1,15.8-8.8c9.5-4.7,16.9-14.1,17.2-13.4c0.3,0.7,0.8,6.7,0.8,6.7l7,13.3
			c0,0-12.9-12.2-12.8-8.1s1.9,10.4,1.9,10.4h-8.8l-4.2-3.5l1.7,3.5h-3.2c0,0-0.6-3.1-2.1-3c-1.5,0.2-2.8,3-2.8,3H22.9z"/>
		<path class="st0" d="M57.9,23.6l19.1,22.3c0,0,8.3-0.1,7.6-1.7c-0.6-1.6-6.4-12.8-6.4-12.8s7.7,6.2,9.7,7.4c2,1.2,2.8,1.2,2.8,1.2
			s-2.7-7.7-6-9.8c-3.3-2.1-4.3-8.7-4.3-8.7l4.8,3.2l-4-7.9L80.7,2.8c0,0-2.2,2.5-6.4,3.9c-4.2,1.5-6.8,6.3-7.9,8.4
			S57.9,23.6,57.9,23.6z"/>
		<path class="st0" d="M86.2,10.7c0,0,4.1,9.8,8,16.3c3.9,6.6,18.1,18.9,18.1,18.9l3.4-5.9l-7-6.7l-3.1,0.9l3.8-3.9l-0.6-6.7
			l-6.9,1.2L85.7,6.7L86.2,10.7z"/>
		<polygon class="st0" points="113.6,31.2 124.5,45 132.2,45.9 127.6,37 125,40.1 115.6,30.3 		"/>
	</g>
</g>
<g>
	<g>
		<path class="st0" d="M-606.8-34.5v7.1h-12.6v-7.1h2.6v-44.4h-2.6v-7h14.2l4.9,30.3h0.3l4.9-30.3h14.3v7h-2.6v44.4h2.6v7.1h-13
			v-7.1h2.2v-29.1h-0.3l-5.9,36.2h-5l-5.9-36.2h-0.3v29.1H-606.8z"/>
		<path class="st0" d="M-548.7-86.7c2.4,0,4.4,0.2,6.1,0.7c1.6,0.5,2.9,1.4,3.9,2.7s1.7,3,2.1,5.2c0.4,2.2,0.6,5.1,0.6,8.6v25.7
			c0,3.5-0.2,6.3-0.6,8.5c-0.4,2.2-1.1,4-2.1,5.2c-1,1.3-2.3,2.2-3.9,2.7c-1.6,0.5-3.6,0.7-6.1,0.7c-2.4,0-4.4-0.2-6.1-0.7
			c-1.6-0.5-2.9-1.4-3.9-2.7c-1-1.3-1.6-3-2.1-5.2c-0.4-2.2-0.6-5.1-0.6-8.5v-25.7c0-3.5,0.2-6.4,0.6-8.6c0.4-2.2,1.1-4,2.1-5.2
			c1-1.3,2.3-2.2,3.9-2.7C-553.1-86.5-551.1-86.7-548.7-86.7z M-551.6-42.4c0,1.9,0,3.5,0.1,4.6c0.1,1.2,0.3,2.1,0.5,2.7
			s0.5,1,0.9,1.2c0.4,0.2,0.8,0.3,1.3,0.3s1-0.1,1.4-0.3c0.4-0.2,0.7-0.6,0.9-1.2c0.2-0.6,0.4-1.5,0.5-2.7c0.1-1.2,0.1-2.7,0.1-4.6
			v-28.3c0-1.9,0-3.5-0.1-4.7c-0.1-1.2-0.2-2.1-0.5-2.7c-0.2-0.6-0.5-1-0.9-1.2s-0.8-0.3-1.4-0.3c-0.5,0-1,0.1-1.3,0.3
			c-0.4,0.2-0.7,0.6-0.9,1.2c-0.2,0.6-0.4,1.5-0.5,2.7s-0.1,2.7-0.1,4.7V-42.4z"/>
		<path class="st0" d="M-488.4-85.9v7h-2.4v35.1c0,3.5-0.2,6.3-0.6,8.5s-1.1,4-2,5.2s-2.2,2.2-3.8,2.7c-1.6,0.5-3.6,0.7-6,0.7
			s-4.4-0.2-5.9-0.7c-1.6-0.5-2.8-1.4-3.8-2.7c-0.9-1.3-1.6-3-2-5.2s-0.6-5.1-0.6-8.5v-35.1h-2.4v-7h13.3v7h-1.1v36.5
			c0,1.9,0,3.5,0.1,4.6c0.1,1.2,0.2,2.1,0.4,2.7c0.2,0.6,0.5,1,0.8,1.2c0.4,0.2,0.8,0.3,1.3,0.3s1-0.1,1.3-0.3
			c0.4-0.2,0.7-0.6,0.9-1.2c0.2-0.6,0.4-1.5,0.5-2.7s0.1-2.7,0.1-4.6v-36.5h-1.2v-7L-488.4-85.9L-488.4-85.9z"/>
		<path class="st0" d="M-451-78.9v-7h12.4v7h-2.3v51.5h-8l-10.6-35.4h-0.3v28.3h3v7.1h-13.4v-7.1h2.5v-44.4h-2.5v-7h13.3l8.1,28.2
			h0.3v-21.2L-451-78.9L-451-78.9z"/>
		<path class="st0" d="M-412.4-67.9h-7.6v-18h32.2v18h-7.6v-11.2h-3.7v44.5h3.1v7.1h-15.9v-7.1h3.2v-44.5h-3.7V-67.9z"/>
		<path class="st0" d="M-368.1-85.9h20.5v7h-2.6l5,44.4h2.6v7.1h-13.8v-7.1h1.9l-0.7-8.2h-5.4l-0.7,8.2h1.7v7.1H-373v-7.1h2.6
			l5.1-44.4h-2.7v-7H-368.1z M-360.1-49.3h4.2l-2-22.5h-0.3L-360.1-49.3z"/>
		<path class="st0" d="M-309.1-34.5v7.1h-15v-7.1h2.6v-44.4h-2.6v-7h15v7h-2.7v44.4H-309.1z"/>
		<path class="st0" d="M-271.2-78.9v-7h12.4v7h-2.3v51.5h-8l-10.6-35.4h-0.3v28.3h3v7.1h-13.4v-7.1h2.5v-44.4h-2.5v-7h13.3l8.1,28.2
			h0.3v-21.2L-271.2-78.9L-271.2-78.9z"/>
	</g>
	<g>
		<path class="st0" d="M-557.7-3.7h-3.1v-7.4h13.3v7.4h-3.1v-4.6h-1.5v18.4h1.3V13h-6.5v-2.9h1.3V-8.3h-1.5v4.6H-557.7z"/>
		<path class="st0" d="M-536.6-11.1h8.5v2.9h-1.1l2.1,18.3h1.1V13h-5.7v-2.9h0.8l-0.3-3.4h-2.2l-0.3,3.4h0.7V13h-5.5v-2.9h1.1
			l2.1-18.3h-1.1v-2.9H-536.6z M-533.3,4h1.7l-0.8-9.3h-0.1L-533.3,4z"/>
		<path class="st0" d="M-510.7-0.2h4.9V13h-3.6v-1.3c-0.2,0.6-0.6,1-1.2,1.2c-0.5,0.3-1.1,0.4-1.8,0.4c-0.6,0-1-0.1-1.5-0.3
			c-0.4-0.2-0.8-0.5-1.1-0.9c-0.3-0.4-0.5-1-0.7-1.8c-0.1-0.8-0.2-1.7-0.2-2.9v-13c0-1.2,0.1-2.1,0.2-2.9c0.1-0.7,0.4-1.3,0.7-1.8
			c0.3-0.4,0.6-0.8,1.1-0.9c0.4-0.2,0.9-0.3,1.5-0.3c0.6,0,1.2,0.1,1.7,0.3c0.5,0.2,0.9,0.6,1.2,1.1v-1h3.3v7.4h-3.4v-1.8
			c0-0.7,0-1.2-0.1-1.6c0-0.4-0.1-0.7-0.2-0.9c-0.1-0.2-0.2-0.4-0.4-0.4c-0.1-0.1-0.3-0.1-0.5-0.1s-0.4,0-0.6,0.1
			c-0.1,0.1-0.3,0.2-0.4,0.5c-0.1,0.2-0.2,0.6-0.2,1c0,0.5-0.1,1.1-0.1,1.8V7c0,0.8,0,1.4,0.1,1.8c0,0.4,0.1,0.8,0.2,1
			s0.2,0.4,0.4,0.5c0.1,0.1,0.3,0.1,0.6,0.1c0.2,0,0.4,0,0.5-0.1s0.3-0.2,0.4-0.4c0.1-0.2,0.2-0.5,0.2-0.9c0.1-0.4,0.1-0.9,0.1-1.6
			V2.7h-1.2v-2.9H-510.7z"/>
		<path class="st0" d="M-488.7-8.2h-1.3v18.3h2.3V4.4h3.4V13H-495v-2.9h1.1V-8.2h-1.1v-2.9h6.4L-488.7-8.2L-488.7-8.2z"/>
		<path class="st0" d="M-467.5,10.1V13h-6.2v-2.9h1.1V-8.2h-1.1v-2.9h6.2v2.9h-1.1v18.3H-467.5z"/>
		<path class="st0" d="M-449.1-8.2v-2.9h5.1v2.9h-0.9V13h-3.3l-4.4-14.6h-0.1v11.7h1.2V13h-5.5v-2.9h1V-8.2h-1v-2.9h5.5l3.4,11.6
			h0.1v-8.7L-449.1-8.2L-449.1-8.2z"/>
		<path class="st0" d="M-426.3-8.2h-2.3v7h4.2v2.9h-4.2v8.4h2.3V4.4h3.4V13h-10.7v-2.9h1.1V-8.2h-1.1v-2.9h10.7v7.4h-3.4V-8.2z"/>
		<path class="st0" d="M-390,10.1V13h-5.6v-2.9h1.1V-8.2h-1.1v-2.9h5.6v2.9h-0.6v7h2.4v-7h-0.5v-2.9h5.7v2.9h-1.1v18.3h1.1V13h-5.7
			v-2.9h0.5V1.7h-2.4v8.4H-390z"/>
		<path class="st0" d="M-365.1-8.2h-2.3v7h4.2v2.9h-4.2v8.4h2.3V4.4h3.4V13h-10.7v-2.9h1.1V-8.2h-1.1v-2.9h10.7v7.4h-3.4V-8.2z"/>
		<path class="st0" d="M-343.6-11.1c1.4,0,2.5,0.4,3.1,1.1s1,2,1,3.7v2.9c0,1.2-0.1,2.1-0.4,2.7c-0.3,0.6-0.7,1.1-1.1,1.3v0.1
			c1,0.5,1.5,1.7,1.6,3.5l0.1,5.1c0,0.3,0,0.5,0.1,0.6s0.2,0.2,0.4,0.2h0.4V13h-2.1c-0.5,0-1,0-1.3-0.2c-0.4-0.1-0.7-0.3-0.9-0.5
			c-0.2-0.3-0.4-0.6-0.5-1c-0.1-0.4-0.2-1-0.2-1.6l-0.1-6.1c0-0.6-0.1-1-0.2-1.2c-0.1-0.2-0.4-0.3-0.7-0.3h-1.4v8h0.9V13h-6v-2.9
			h1.1V-8.2h-1.1v-2.9L-343.6-11.1L-343.6-11.1z M-344.4-0.7c0.3,0,0.6-0.1,0.7-0.3c0.1-0.2,0.2-0.6,0.2-1.2v-4.3
			c0-0.6-0.1-1.1-0.2-1.3c-0.1-0.2-0.4-0.4-0.9-0.4h-1.3v7.5L-344.4-0.7L-344.4-0.7z"/>
		<path class="st0" d="M-320.8-8.2h-2.3v7h4.2v2.9h-4.2v8.4h2.3V4.4h3.4V13h-10.7v-2.9h1.1V-8.2h-1.1v-2.9h10.7v7.4h-3.4V-8.2z"/>
	</g>
	<path class="st0" d="M-194.1-96.2h-490.1v-1.2h490.1C-194.1-97.4-194.1-96.2-194.1-96.2z M-194.1-22h-490.1v1.2h490.1
		C-194.1-20.8-194.1-22-194.1-22z"/>
	<g>
		<g>
			<polygon class="st0" points="-574,-272.9 -574,-283.6 -683.9,-283.6 -588,-117.5 -575.7,-117.5 -665.4,-272.9 			"/>
			<polygon class="st0" points="-304.2,-283.6 -304.2,-272.9 -212.8,-272.9 -302.5,-117.5 -290.2,-117.5 -194.3,-283.6 			"/>
		</g>
		<polygon class="st0" points="-382.9,21.6 -439.1,119 -495.3,21.6 -507.7,21.6 -439.1,140.4 -370.5,21.6 		"/>
	</g>
	<g>
		<path class="st0" d="M-617.5-179.7c0,0,20.4-13.5,51.5-28.8c31.1-15.2,55.3-46.2,56.2-43.8c0.9,2.4,2.5,21.8,2.5,21.8l22.7,43.3
			c0,0-42.1-39.7-41.9-26.6c0.2,13.1,6.1,34.1,6.1,34.1H-549l-13.7-11.4l5.4,11.4h-10.4c0,0-2.1-10.2-7-9.7
			c-4.8,0.5-9.1,9.7-9.1,9.7H-617.5z"/>
		<path class="st0" d="M-503.2-252.4l62.5,72.7c0,0,27-0.4,24.8-5.4c-2.1-5.1-20.9-41.7-20.9-41.7s25.2,20.3,31.6,24.3
			c6.4,4,9.1,4,9.1,4s-8.9-25-19.7-31.9c-10.8-6.9-14-28.3-14-28.3l15.8,10.5l-12.9-25.8l-1.9-46.4c0,0-7.1,8-20.9,12.8
			c-13.7,4.8-22.3,20.6-25.7,27.6C-478.8-273.1-503.2-252.4-503.2-252.4z"/>
		<path class="st0" d="M-411.1-294.7c0,0,13.4,31.9,26.2,53.3c12.9,21.4,59.2,61.7,59.2,61.7l11-19.2l-22.8-21.8l-10.2,2.9
			l12.3-12.7l-1.9-21.9l-22.5,3.8l-52.7-59.1L-411.1-294.7z"/>
		<polygon class="st0" points="-321.4,-227.6 -285.8,-182.6 -260.7,-179.7 -275.9,-208.8 -284.2,-198.6 -314.7,-230.5 		"/>
	</g>
	<g>
		<path class="st0" d="M-523.3-148.3h-2.4v7.4h4.4v3.1h-4.4v8.9h2.4v-6h3.6v9.1h-11.4v-3.1h1.1v-19.4h-1.1v-3.1h11.4v7.9h-3.6
			V-148.3z"/>
		<path class="st0" d="M-503.9-144.6c0,0.6,0.1,1.1,0.4,1.6s0.7,1,1.2,1.6l2.1,2.3c0.4,0.5,0.8,0.9,1,1.3c0.3,0.4,0.5,0.8,0.7,1.2
			s0.3,0.9,0.4,1.4s0.1,1.1,0.1,1.7v2c0,1.2-0.1,2.1-0.2,2.9c-0.2,0.8-0.4,1.4-0.7,1.9c-0.3,0.5-0.7,0.8-1.2,1s-1,0.3-1.6,0.3
			s-1.2-0.1-1.8-0.3c-0.6-0.2-1-0.6-1.2-1.2v1.2h-3.5v-9.1h3.6v3.1c0,0.7,0,1.3,0.1,1.8c0,0.4,0.1,0.8,0.2,1s0.2,0.4,0.4,0.5
			c0.1,0.1,0.3,0.1,0.5,0.1s0.4,0,0.6-0.1s0.3-0.2,0.4-0.5c0.1-0.2,0.2-0.6,0.2-1s0.1-1,0.1-1.7v-1.3c0-0.5,0-0.9-0.1-1.2
			c0-0.3-0.1-0.6-0.3-0.9c-0.1-0.3-0.3-0.6-0.5-0.8c-0.2-0.3-0.5-0.6-0.8-0.9l-2.1-2.3c-0.4-0.5-0.8-0.9-1-1.2
			c-0.3-0.4-0.5-0.8-0.6-1.2c-0.2-0.4-0.3-0.8-0.3-1.3c-0.1-0.5-0.1-1-0.1-1.6v-1.7c0-1,0.1-1.8,0.2-2.5s0.4-1.2,0.7-1.6
			c0.3-0.4,0.7-0.7,1.1-0.9s1-0.3,1.6-0.3s1.2,0.1,1.8,0.3c0.5,0.2,0.9,0.6,1.2,1.1v-1.1h3.5v7.9h-3.6v-2.5c0-0.7,0-1.2-0.1-1.7
			c0-0.4-0.1-0.7-0.2-0.9s-0.2-0.3-0.4-0.4c-0.1-0.1-0.3-0.1-0.5-0.1s-0.4,0-0.6,0.1s-0.3,0.2-0.4,0.4s-0.2,0.5-0.2,0.9
			s-0.1,0.9-0.1,1.6L-503.9-144.6L-503.9-144.6z"/>
		<path class="st0" d="M-483.1-143.5h-3.3v-7.9h14.1v7.9h-3.3v-4.9h-1.6v19.4h1.4v3.1h-6.9v-3.1h1.4v-19.4h-1.6v4.9H-483.1z"/>
		<path class="st0" d="M-453.8-151.3c0.9,0,1.7,0.1,2.3,0.3c0.6,0.2,1.1,0.6,1.5,1.1s0.7,1.2,0.8,2.1s0.3,2,0.3,3.3v12.2
			c0,1.3-0.1,2.4-0.3,3.2c-0.2,0.9-0.5,1.5-0.8,2c-0.4,0.5-0.9,0.9-1.5,1.1c-0.6,0.2-1.4,0.3-2.3,0.3h-7.3v-3.1h1.1v-19.4h-1.1v-3.1
			L-453.8-151.3L-453.8-151.3z M-455.7-128.9h1.3c0.5,0,0.8-0.1,1-0.5c0.2-0.3,0.2-0.9,0.2-1.8V-146c0-0.9-0.1-1.5-0.2-1.8
			c-0.2-0.3-0.5-0.5-1-0.5h-1.3V-128.9z"/>
		<path class="st0" d="M-413.6-145.3c0-0.7,0-1.2-0.1-1.6s-0.1-0.8-0.2-1c-0.1-0.2-0.2-0.4-0.4-0.5c-0.2-0.1-0.4-0.1-0.6-0.1
			c-0.2,0-0.4,0-0.5,0.1c-0.1,0.1-0.3,0.3-0.3,0.5c-0.1,0.2-0.1,0.6-0.2,1c0,0.4,0,1,0,1.7v1.9h-3.7v-1.3c0-1.4,0.1-2.5,0.2-3.4
			c0.1-0.9,0.4-1.6,0.8-2.1s0.9-0.9,1.5-1.1c0.6-0.2,1.4-0.3,2.4-0.3c0.9,0,1.7,0.1,2.4,0.3c0.6,0.2,1.2,0.5,1.6,1
			c0.4,0.5,0.7,1.1,0.9,1.9c0.2,0.8,0.3,1.8,0.3,3v0.7c0,0.5,0,1-0.1,1.4c-0.1,0.4-0.2,0.8-0.4,1.2c-0.2,0.4-0.4,0.8-0.6,1.2
			c-0.3,0.4-0.6,0.8-1,1.3l-2.2,2.5c-0.3,0.3-0.5,0.6-0.7,0.9c-0.2,0.3-0.4,0.6-0.5,0.9c-0.1,0.3-0.2,0.7-0.2,1
			c0,0.4-0.1,0.8-0.1,1.3v4h2.4v-6h3.6v9.1h-10.1v-7c0-0.7,0-1.3,0.1-1.8s0.2-1,0.3-1.4c0.1-0.4,0.4-0.9,0.6-1.3
			c0.3-0.4,0.6-0.8,1-1.3l2.8-3.3c0.2-0.3,0.4-0.5,0.6-0.7s0.3-0.4,0.4-0.6c0.1-0.2,0.2-0.4,0.2-0.6c0-0.2,0.1-0.5,0.1-0.7v-0.8
			H-413.6z"/>
		<path class="st0" d="M-397.7-146.9c0-1,0.1-1.8,0.2-2.4c0.2-0.6,0.5-1.1,0.9-1.5s1-0.6,1.6-0.7c0.7-0.1,1.6-0.2,2.6-0.2
			c1.1,0,1.9,0.1,2.6,0.2c0.7,0.1,1.2,0.4,1.6,0.7c0.4,0.4,0.7,0.9,0.9,1.5s0.2,1.4,0.2,2.4v16.6c0,1-0.1,1.7-0.2,2.4
			c-0.2,0.6-0.5,1.1-0.9,1.5s-0.9,0.6-1.6,0.8c-0.7,0.1-1.6,0.2-2.6,0.2c-1.1,0-1.9-0.1-2.6-0.2c-0.7-0.1-1.2-0.4-1.6-0.8
			c-0.4-0.4-0.7-0.9-0.9-1.5s-0.2-1.4-0.2-2.4V-146.9z M-393.5-130.7c0,0.5,0,0.9,0.1,1.1c0,0.3,0.1,0.5,0.2,0.7
			c0.1,0.2,0.2,0.3,0.4,0.3c0.2,0,0.4,0.1,0.6,0.1s0.4,0,0.6-0.1c0.2,0,0.3-0.1,0.4-0.3c0.1-0.2,0.2-0.4,0.2-0.7s0.1-0.7,0.1-1.1
			v-15.8c0-0.5,0-0.8-0.1-1.1c0-0.3-0.1-0.5-0.2-0.6c-0.1-0.1-0.2-0.2-0.4-0.3c-0.2,0-0.4-0.1-0.6-0.1s-0.4,0-0.6,0.1
			c-0.2,0-0.3,0.1-0.4,0.3c-0.1,0.1-0.2,0.4-0.2,0.6c0,0.3-0.1,0.6-0.1,1.1V-130.7z"/>
		<path class="st0" d="M-369.1-128.9v3.1h-6.3v-3.1h1.1v-19.4h-1.1v-3.1h5.3v22.4h1V-128.9z"/>
		<path class="st0" d="M-357.8-146.9c0-1,0.1-1.8,0.2-2.4c0.2-0.6,0.5-1.1,0.9-1.5s1-0.6,1.6-0.7c0.7-0.1,1.6-0.2,2.6-0.2
			c1.1,0,1.9,0.1,2.6,0.2c0.7,0.1,1.2,0.4,1.6,0.7c0.4,0.4,0.7,0.9,0.9,1.5s0.2,1.4,0.2,2.4v16.6c0,1-0.1,1.7-0.2,2.4
			c-0.2,0.6-0.5,1.1-0.9,1.5s-0.9,0.6-1.6,0.8c-0.7,0.1-1.6,0.2-2.6,0.2c-1.1,0-1.9-0.1-2.6-0.2c-0.7-0.1-1.2-0.4-1.6-0.8
			c-0.4-0.4-0.7-0.9-0.9-1.5s-0.2-1.4-0.2-2.4V-146.9z M-353.6-130.7c0,0.5,0,0.9,0.1,1.1c0,0.3,0.1,0.5,0.2,0.7
			c0.1,0.2,0.2,0.3,0.4,0.3c0.2,0,0.4,0.1,0.6,0.1s0.4,0,0.6-0.1c0.2,0,0.3-0.1,0.4-0.3c0.1-0.2,0.2-0.4,0.2-0.7s0.1-0.7,0.1-1.1
			v-15.8c0-0.5,0-0.8-0.1-1.1c0-0.3-0.1-0.5-0.2-0.6c-0.1-0.1-0.2-0.2-0.4-0.3c-0.2,0-0.4-0.1-0.6-0.1s-0.4,0-0.6,0.1
			c-0.2,0-0.3,0.1-0.4,0.3c-0.1,0.1-0.2,0.4-0.2,0.6c0,0.3-0.1,0.6-0.1,1.1V-130.7z"/>
	</g>
</g>
<g>
	<path d="M8.3,76.5v2H7.5v9.1h0.6v2H3.5v-2h0.9v-9.1H3.5v-2H8.3z M13,76.5v2h-0.8l-1.7,3.3l2.3,5.8h0.8v2H9.1v-2h0.6l-1.9-4.9
		l2.2-4.3H9.2v-2L13,76.5L13,76.5z"/>
	<path d="M21.1,76.5v2h-1.3v9.1h1.3v2h-5.7v-2h1.3v-9.1h-1.3v-2H21.1z"/>
	<path d="M27.4,76.5c1.1,2.5,1.7,4.5,2.6,7.8h0.2C30,82,30,81.5,30,81.1v-2.7h-0.8v-2h3.4v2H32v11.2h-2.4c-2-5.1-2.2-5.8-3.2-9h-0.2
		c0.1,1,0.2,3.8,0.2,4.3v2.6h0.7v2h-3.5v-1.9h0.8v-9.1h-0.8v-2H27.4z"/>
	<path d="M41.1,77.4L41.1,77.4l0-1h2.1v4.4h-2.1c0-1.6-0.5-2.5-1.3-2.5c-1,0-1.1,0.9-1.1,4.2c0,3.9,0.2,4.8,1.1,4.8
		c0.7,0,1.1-0.7,1.1-2.1h-0.9v-2h4v0.5c0,3.7-1.5,5.8-4.2,5.8c-2.8,0-4.5-2.4-4.5-6.7c0-4.3,1.4-6.8,3.7-6.8
		C39.9,76.3,40.6,76.6,41.1,77.4z"/>
	<path d="M51.1,76.5c2.5,0,4.5,2.4,4.5,6.4c0,4.3-1.7,6.7-4.5,6.7h-4.5v-2h0.9v-9.1h-0.9v-2H51.1z M50.5,87.6c1.2,0,1.8-0.6,1.8-4.6
		c0-3.8-0.6-4.5-1.8-4.5V87.6z"/>
	<path d="M67.3,83c0,4-1.7,6.7-4.4,6.7c-2.7,0-4.4-2.7-4.4-6.7c0-4.1,1.7-6.7,4.4-6.7C65.6,76.3,67.3,79,67.3,83z M62.8,78.5
		c-0.8,0-1,0.9-1,4.3c0,4.3,0.3,4.7,1.1,4.7c0.9,0,1.1-1.1,1.1-4.5C63.9,79.3,63.8,78.5,62.8,78.5z"/>
	<path d="M75.1,76.5l0.8,5.1h0.2l0.8-5.1h5.5v2h-0.9v9.1h0.9v2h-4.7v-2h0.7v-9.3h-0.2l-2.1,11.3h-1L73,78.2l-0.2,0v9.4h0.7v2H70v-2
		h0.9v-9.1H70v-2H75.1z"/>
	<path d="M100.2,76.5v4.8h-2v-2.8h-1.1v9.1h1.1v2H93v-2h1.1v-9.1H93v2.8h-2v-4.8H100.2z"/>
	<path d="M107.7,76.5c2,0,3.8,1.3,3.8,3.8c0,1.2-0.4,2-1.3,2.6l1,4.7h0.6v2h-2.8l-1.2-5.7h-1v3.8h0.8v2h-4.7v-2h0.8v-9.1h-0.8v-2
		H107.7z M106.6,81.9h0.1c1.3,0,1.6-0.6,1.6-1.9c0-1.3-0.3-1.7-1.7-1.7h-0.1V81.9z"/>
	<path d="M122.3,76.5v2h-0.9l1.5,9.1h0.8v2h-4.4v-2h0.8l-0.3-2.4h-2.1l-0.3,2.4h0.8v2h-4.5v-2h0.9l1.4-9.1h-0.8v-2H122.3z
		 M118.5,78.1l-0.6,5.4h1.7l-0.7-5.4L118.5,78.1L118.5,78.1z"/>
	<path d="M131.4,76.5v2h-1.3v9.1h1.3v2h-5.7v-2h1.3v-9.1h-1.3v-2H131.4z"/>
	<path d="M139.5,76.5v2H138v9.1h2.2v-3.9h2.3v5.8h-8.8v-2h1.2v-9.1h-1.2v-2H139.5z"/>
	<path d="M149.7,77.3v-0.8h2v3.9h-2v-0.2c0-1.4-0.4-2-1.1-2c-0.4,0-0.9,0.3-0.9,0.9c0,0.9,0.3,1.2,1.4,2.1c2.1,1.7,2.8,3.1,2.8,4.7
		c0,2-1.3,3.5-2.9,3.5c-0.8,0-1.3-0.2-2-0.9v0.8h-2v-4.2h2v0.4c0,1.3,0.4,2,1.2,2c0.6,0,1-0.5,1-1.3c0-0.8-0.6-1.6-1.6-2.5
		c-2.2-2-2.6-3.1-2.6-4.3c0-1.8,1.1-3.1,2.7-3.1C148.5,76.4,149,76.5,149.7,77.3z"/>
</g>
<g>
	<path d="M56.8,58.5c1.1,0,2,1,2,2.8c0,1.9-0.8,3-2,3h-2v-0.9h0.4v-4.1h-0.4v-0.9L56.8,58.5L56.8,58.5z M56.6,63.5
		c0.6,0,0.8-0.2,0.8-2.1c0-1.7-0.2-2-0.8-2V63.5z"/>
	<path d="M63.9,58.5v1.8h-1v-1h-1v1.5h0.8v0.9h-0.8v1.7h1v-1h1v1.9H60v-0.9h0.5v-4.1H60v-0.9L63.9,58.5L63.9,58.5z"/>
	<path d="M67,58.5c1.3,0,2.1,0.7,2.1,1.9c0,1.2-0.8,1.8-2.2,1.8v1.3h0.5v0.9h-2.3v-0.9h0.4v-4.1h-0.4v-0.9H67z M66.9,61.3
		c0.6,0,0.8-0.3,0.8-1c0-0.6-0.2-0.9-0.8-0.9V61.3z"/>
	<path d="M72.2,58.5v0.9H72v3.6c0,0.4,0.2,0.6,0.4,0.6c0.3,0,0.5-0.2,0.5-0.6v-3.5h-0.2v-0.9h1.6v0.9h-0.5v3.6
		c0,0.9-0.6,1.5-1.5,1.5c-1.1,0-1.6-0.6-1.6-1.6v-3.5h-0.5v-0.9L72.2,58.5L72.2,58.5z"/>
	<path d="M77.7,58.5v0.9h-0.6v4.1h0.6v0.9h-2.5v-0.9h0.6v-4.1h-0.6v-0.9H77.7z"/>
	<path d="M80.9,58.9v-0.4h0.9v1.7h-0.9v-0.1c0-0.6-0.2-0.9-0.5-0.9c-0.2,0-0.4,0.1-0.4,0.4c0,0.4,0.2,0.6,0.6,0.9
		c0.9,0.8,1.3,1.4,1.3,2.1c0,0.9-0.6,1.6-1.3,1.6c-0.4,0-0.6-0.1-0.9-0.4v0.4h-0.9v-1.9h0.9v0.2c0,0.6,0.2,0.9,0.5,0.9
		c0.3,0,0.4-0.2,0.4-0.6s-0.2-0.7-0.7-1.1c-1-0.9-1.2-1.4-1.2-1.9c0-0.8,0.5-1.4,1.2-1.4C80.4,58.5,80.6,58.6,80.9,58.9z"/>
	<path d="M89.4,60c0,1-0.6,1.5-1.3,2.2c-0.5,0.5-0.7,0.9-0.7,1.3h1.2v-0.9h0.9v1.7h-3v-0.1c0-1.5,0.5-2.1,1.2-2.8
		c0.4-0.5,0.6-0.9,0.6-1.4c0-0.5-0.1-0.7-0.4-0.7c-0.3,0-0.4,0.2-0.4,0.7c0,0.1,0,0.3,0,0.4l-1-0.1c0-0.1,0-0.2,0-0.2
		c0-1.2,0.7-1.7,1.5-1.7C88.8,58.5,89.4,59.1,89.4,60z"/>
	<path d="M93.7,61.3v0.2c0,2.1-0.5,2.9-1.5,2.9c-0.9,0-1.5-0.8-1.5-2.8v-0.4c0-2.3,0.6-2.8,1.5-2.8C93.1,58.5,93.7,59.2,93.7,61.3z
		 M91.8,62.7c0,0.6,0.1,0.9,0.4,0.9s0.4-0.3,0.4-1.2v-1.7c0-1.1-0.1-1.3-0.4-1.3c-0.3,0-0.4,0.3-0.4,1L91.8,62.7L91.8,62.7z"/>
	<path d="M97.9,61.3v0.2c0,2.1-0.5,2.9-1.5,2.9c-0.9,0-1.5-0.8-1.5-2.8v-0.4c0-2.3,0.6-2.8,1.5-2.8C97.3,58.5,97.9,59.2,97.9,61.3z
		 M96,62.7c0,0.6,0.1,0.9,0.4,0.9c0.3,0,0.4-0.3,0.4-1.2v-1.7c0-1.1-0.1-1.3-0.4-1.3c-0.3,0-0.4,0.3-0.4,1L96,62.7L96,62.7z"/>
	<path d="M102,60c0,1-0.6,1.5-1.3,2.2c-0.5,0.5-0.7,0.9-0.7,1.3h1.2v-0.9h0.9v1.7h-3v-0.1c0-1.5,0.5-2.1,1.2-2.8
		c0.4-0.5,0.6-0.9,0.6-1.4c0-0.5-0.1-0.7-0.4-0.7c-0.3,0-0.4,0.2-0.4,0.7c0,0.1,0,0.3,0,0.4l-1-0.1c0-0.1,0-0.2,0-0.2
		c0-1.2,0.7-1.7,1.5-1.7C101.4,58.5,102,59.1,102,60z"/>
</g>
<g>
	<path d="M14.3,99v-0.4h0.9v1.7h-0.9v-0.1c0-0.6-0.2-0.9-0.5-0.9c-0.2,0-0.4,0.1-0.4,0.4c0,0.4,0.2,0.6,0.6,0.9
		c0.9,0.8,1.3,1.4,1.3,2.1c0,0.9-0.6,1.6-1.3,1.6c-0.4,0-0.6-0.1-0.9-0.4v0.4h-0.9v-1.9h0.9v0.2c0,0.6,0.2,0.9,0.5,0.9
		c0.3,0,0.4-0.2,0.4-0.6c0-0.4-0.2-0.7-0.7-1.1c-1-0.9-1.2-1.4-1.2-1.9c0-0.8,0.5-1.4,1.2-1.4C13.7,98.5,13.9,98.6,14.3,99z"/>
	<path d="M20.3,98.6v1.8h-1v-1h-1v1.5h0.8v0.9h-0.8v1.7h1v-1h1v1.9h-4v-0.9h0.5v-4.1h-0.5v-0.9H20.3z"/>
	<path d="M23.2,98.6c0.5,1.1,0.8,2,1.2,3.5h0.1c-0.1-1-0.1-1.2-0.1-1.4v-1.2H24v-0.9h1.5v0.9h-0.3v5h-1.1c-0.9-2.3-1-2.6-1.4-4h-0.1
		c0,0.4,0.1,1.7,0.1,1.9v1.2H23v0.9h-1.5v-0.9h0.4v-4.1h-0.4v-0.9H23.2z"/>
	<path d="M30.7,98.6v2.1h-0.9v-1.3h-0.5v4.1h0.5v0.9h-2.3v-0.9H28v-4.1h-0.5v1.3h-0.9v-2.1H30.7z"/>
	<path d="M34.2,98.6v0.9h-0.6v4.1h0.6v0.9h-2.5v-0.9h0.6v-4.1h-0.6v-0.9H34.2z"/>
	<path d="M39.2,98.6v1.8h-1v-1h-1v1.5h0.8v0.9h-0.8v1.7h1v-1h1v1.9h-3.9v-0.9h0.5v-4.1h-0.5v-0.9H39.2z"/>
	<path d="M42.6,98.6c0.9,0,1.7,0.6,1.7,1.7c0,0.5-0.2,0.9-0.6,1.2l0.5,2.1h0.2v0.9h-1.3l-0.6-2.5h-0.5v1.7h0.4v0.9h-2.1v-0.9h0.4
		v-4.1h-0.4v-0.9H42.6z M42.2,101L42.2,101c0.6,0,0.8-0.3,0.8-0.8c0-0.6-0.2-0.8-0.7-0.8h0V101z"/>
	<path d="M47.6,99v-0.4h0.9v1.7h-0.9v-0.1c0-0.6-0.2-0.9-0.5-0.9c-0.2,0-0.4,0.1-0.4,0.4c0,0.4,0.2,0.6,0.6,0.9
		c0.9,0.8,1.3,1.4,1.3,2.1c0,0.9-0.6,1.6-1.3,1.6c-0.4,0-0.6-0.1-0.9-0.4v0.4h-0.9v-1.9h0.9v0.2c0,0.6,0.2,0.9,0.5,0.9
		c0.3,0,0.4-0.2,0.4-0.6c0-0.4-0.2-0.7-0.7-1.1c-1-0.9-1.2-1.4-1.2-1.9c0-0.8,0.5-1.4,1.2-1.4C47.1,98.5,47.3,98.6,47.6,99z"/>
	<path d="M55.2,98.6c1.1,0,2,1,2,2.8c0,1.9-0.8,3-2,3h-2v-0.9h0.4v-4.1h-0.4v-0.9H55.2z M54.9,103.5c0.6,0,0.8-0.2,0.8-2.1
		c0-1.7-0.2-2-0.8-2V103.5z"/>
	<path d="M62.3,98.6v1.8h-1v-1h-1v1.5H61v0.9h-0.8v1.7h1v-1h1v1.9h-3.9v-0.9h0.5v-4.1h-0.5v-0.9H62.3z"/>
	<path d="M68,98.6v0.9h-0.4l0.6,2.8h0l0.6-2.8h-0.5v-0.9h2v0.9H70l-1.3,5h-1.1l-1.3-5h-0.4v-0.9H68z"/>
	<path d="M75.2,98.6v1.8h-1v-1h-1v1.5h0.8v0.9h-0.8v1.7h1v-1h1v1.9h-3.9v-0.9h0.5v-4.1h-0.5v-0.9H75.2z M74.9,96.7l-1.6,1.5h-0.7
		l0.8-1.5H74.9z"/>
	<path d="M78.9,98.6v0.9h-0.6v4.1h1v-1.7h1v2.6h-3.9v-0.9h0.5v-4.1h-0.5v-0.9H78.9z"/>
	<path d="M85.4,101.5c0,1.8-0.8,3-2,3c-1.2,0-2-1.2-2-3c0-1.8,0.8-3,2-3C84.6,98.5,85.4,99.7,85.4,101.5z M83.4,99.5
		c-0.4,0-0.5,0.4-0.5,1.9c0,1.9,0.2,2.1,0.5,2.1c0.4,0,0.5-0.5,0.5-2C83.9,99.8,83.8,99.5,83.4,99.5z"/>
	<path d="M92,98.6c1.1,0,2,1,2,2.8c0,1.9-0.8,3-2,3h-2v-0.9h0.4v-4.1H90v-0.9H92z M91.7,103.5c0.6,0,0.8-0.2,0.8-2.1
		c0-1.7-0.2-2-0.8-2V103.5z"/>
	<path d="M99.1,98.6v1.8h-1v-1h-1v1.5h0.8v0.9H97v1.7h1v-1h1v1.9h-3.9v-0.9h0.5v-4.1h-0.5v-0.9H99.1z"/>
	<path d="M105.9,98.6l0.4,2.3h0.1l0.4-2.3h2.4v0.9h-0.4v4.1h0.4v0.9h-2.1v-0.9h0.3v-4.2h-0.1l-0.9,5H106l-0.9-5h-0.1v4.2h0.3v0.9
		h-1.5v-0.9h0.4v-4.1h-0.4v-0.9H105.9z"/>
	<path d="M114.4,101.5c0,1.8-0.8,3-2,3s-2-1.2-2-3c0-1.8,0.8-3,2-3S114.4,99.7,114.4,101.5z M112.4,99.5c-0.4,0-0.5,0.4-0.5,1.9
		c0,1.9,0.2,2.1,0.5,2.1c0.4,0,0.5-0.5,0.5-2C112.8,99.8,112.8,99.5,112.4,99.5z"/>
	<path d="M117.2,98.6c0.5,1.1,0.8,2,1.2,3.5h0.1c-0.1-1-0.1-1.2-0.1-1.4v-1.2h-0.3v-0.9h1.5v0.9h-0.3v5h-1.1c-0.9-2.3-1-2.6-1.4-4
		h-0.1c0,0.4,0.1,1.7,0.1,1.9v1.2h0.3v0.9h-1.5v-0.9h0.4v-4.1h-0.4v-0.9H117.2z"/>
	<path d="M124.8,98.6v2.1h-0.9v-1.3h-0.5v4.1h0.5v0.9h-2.3v-0.9h0.5v-4.1h-0.5v1.3h-0.9v-2.1H124.8z"/>
	<path d="M129.2,98.6v0.9h-0.4l0.7,4.1h0.4v0.9h-2v-0.9h0.4l-0.2-1.1h-0.9l-0.1,1.1h0.4v0.9h-2v-0.9h0.4l0.6-4.1H126v-0.9H129.2z
		 M127.5,99.3l-0.3,2.4h0.8l-0.3-2.4H127.5z"/>
	<path d="M133.2,99L133.2,99l0-0.4h0.9v2h-0.9c0-0.7-0.2-1.1-0.6-1.1c-0.5,0-0.5,0.4-0.5,1.9c0,1.7,0.1,2.1,0.5,2.1
		c0.3,0,0.5-0.3,0.5-0.9h-0.4v-0.9h1.8v0.2c0,1.7-0.6,2.6-1.9,2.6c-1.3,0-2-1.1-2-3c0-1.9,0.6-3,1.7-3C132.7,98.5,133,98.6,133.2,99
		z"/>
	<path d="M137.4,98.6c0.5,1.1,0.8,2,1.2,3.5h0.1c-0.1-1-0.1-1.2-0.1-1.4v-1.2h-0.3v-0.9h1.5v0.9h-0.3v5h-1.1c-0.9-2.3-1-2.6-1.4-4
		h-0.1c0,0.4,0.1,1.7,0.1,1.9v1.2h0.3v0.9h-1.5v-0.9h0.4v-4.1h-0.4v-0.9H137.4z"/>
	<path d="M144.7,98.6v1.8h-1v-1h-1v1.5h0.8v0.9h-0.8v1.7h1v-1h1v1.9h-3.9v-0.9h0.5v-4.1h-0.5v-0.9H144.7z"/>
</g>
<g>
	<path class="st0" d="M869.4-96.2H379.3v-1.2h490.1V-96.2z M869.4-22H379.3v1.2h490.1V-22z"/>
	<g>
		<g>
			<polygon class="st0" points="489.4,-272.9 489.4,-283.6 379.6,-283.6 475.4,-117.5 487.8,-117.5 398.1,-272.9 			"/>
			<polygon class="st0" points="759.3,-283.6 759.3,-272.9 850.6,-272.9 760.9,-117.5 773.3,-117.5 869.2,-283.6 			"/>
		</g>
		<polygon class="st0" points="680.6,21.6 624.4,119 568.1,21.6 555.8,21.6 624.4,140.4 692.9,21.6 		"/>
	</g>
	<g>
		<path class="st0" d="M445.9-179.7c0,0,20.4-13.5,51.5-28.8c31.1-15.2,55.3-46.2,56.2-43.8s2.5,21.8,2.5,21.8l22.7,43.3
			c0,0-42.1-39.7-41.9-26.6c0.2,13.1,6.1,34.1,6.1,34.1h-28.6l-13.7-11.4l5.4,11.4h-10.4c0,0-2.1-10.2-7-9.7
			c-4.8,0.5-9.1,9.7-9.1,9.7H445.9z"/>
		<path class="st0" d="M560.2-252.4l62.5,72.7c0,0,27-0.4,24.8-5.4c-2.1-5.1-20.9-41.7-20.9-41.7s25.2,20.3,31.6,24.3
			c6.4,4,9.1,4,9.1,4s-8.9-25-19.7-31.9c-10.8-6.9-14-28.3-14-28.3l15.8,10.5L636.5-274l-1.9-46.4c0,0-7.1,8-20.9,12.8
			C600-302.8,591.4-287,588-280C584.7-273.1,560.2-252.4,560.2-252.4z"/>
		<path class="st0" d="M652.3-294.7c0,0,13.4,31.9,26.2,53.3s59.2,61.7,59.2,61.7l11-19.2L726-220.7l-10.2,2.9l12.3-12.7l-1.9-21.9
			l-22.5,3.8L651-307.8L652.3-294.7z"/>
		<polygon class="st0" points="742,-227.6 777.6,-182.6 802.8,-179.7 787.5,-208.8 779.2,-198.6 748.7,-230.5 		"/>
	</g>
</g>
<text transform="matrix(1 0 0 1 378.7803 -36.2669)" style="font-family:'RockwellStd-BoldCondensed'; font-size:60.6061px; letter-spacing:3;">Kingdom Trails</text>
<text transform="matrix(1 0 0 1 549.4346 -118.432)" style="font-family:'RockwellStd-BoldCondensed'; font-size:27px; letter-spacing:1;">Depuis 2002</text>
<text transform="matrix(1 0 0 1 408.0108 11.3392)" style="font-family:'RockwellStd-BoldCondensed'; font-size:27px; letter-spacing:1;">Sentiers de vélo de montagne</text>
</svg>
