<?xml version="1.0" encoding="utf-8"?>
<!-- Generator: Adobe Illustrator 27.5.0, SVG Export Plug-In . SVG Version: 6.00 Build 0)  -->
<svg version="1.1" xmlns="http://www.w3.org/2000/svg" xmlns:xlink="http://www.w3.org/1999/xlink" x="0px" y="0px"
	 viewBox="0 0 500 471.8" style="enable-background:new 0 0 500 471.8;" xml:space="preserve">
<style type="text/css">
	.st0{fill:#141414;}
</style>
<g>
	<path class="st0" d="M495.3,229.4H5.2v-1.2h490.1V229.4z M495.3,303.6H5.2v1.2h490.1V303.6z"/>
	<g>
		<g>
			<polygon class="st0" points="115.3,52.7 115.3,42 5.5,42 101.4,208.1 113.7,208.1 24,52.7 			"/>
			<polygon class="st0" points="385.2,42 385.2,52.7 476.6,52.7 386.9,208.1 399.2,208.1 495.1,42 			"/>
		</g>
		<polygon class="st0" points="306.5,347.2 250.3,444.6 194,347.2 181.7,347.2 250.3,466 318.9,347.2 		"/>
	</g>
	<g>
		<path class="st0" d="M71.8,145.9c0,0,20.4-13.5,51.5-28.8c31.1-15.2,55.3-46.2,56.2-43.8c0.9,2.4,2.5,21.8,2.5,21.8l22.7,43.3
			c0,0-42.1-39.7-41.9-26.6c0.2,13.1,6.1,34.1,6.1,34.1h-28.6l-13.7-11.4l5.4,11.4h-10.4c0,0-2.1-10.2-7-9.7
			c-4.8,0.5-9.1,9.7-9.1,9.7H71.8z"/>
		<path class="st0" d="M186.2,73.2l62.5,72.7c0,0,27-0.4,24.8-5.4c-2.1-5.1-20.9-41.7-20.9-41.7s25.2,20.3,31.6,24.3
			c6.4,4,9.1,4,9.1,4s-8.9-25-19.7-31.9c-10.8-6.9-14-28.3-14-28.3l15.8,10.5l-12.9-25.8l-1.9-46.4c0,0-7.1,8-20.9,12.8
			C226,22.8,217.4,38.5,214,45.5C210.6,52.5,186.2,73.2,186.2,73.2z"/>
		<path class="st0" d="M278.3,30.9c0,0,13.4,31.9,26.2,53.3s59.2,61.7,59.2,61.7l11-19.2l-22.8-21.8l-10.2,2.9L354,95.1l-1.9-21.9
			l-22.5,3.8l-52.7-59.1L278.3,30.9z"/>
		<polygon class="st0" points="367.9,98 403.6,143 428.7,145.9 413.5,116.8 405.2,127 374.6,95.1 		"/>
	</g>
</g>
<g>
	<g>
		<path class="st0" d="M-434.8,291.1v7.1h-12.6v-7.1h2.6v-44.4h-2.6v-7h14.2l4.9,30.3h0.3l4.9-30.3h14.3v7h-2.6v44.4h2.6v7.1h-13
			v-7.1h2.2V262h-0.3l-5.9,36.2h-5l-5.9-36.2h-0.3v29.1H-434.8z"/>
		<path class="st0" d="M-376.7,238.9c2.4,0,4.4,0.2,6.1,0.7c1.6,0.5,2.9,1.4,3.9,2.7c1,1.3,1.7,3,2.1,5.2c0.4,2.2,0.6,5.1,0.6,8.6
			v25.7c0,3.5-0.2,6.3-0.6,8.5c-0.4,2.2-1.1,4-2.1,5.2c-1,1.3-2.3,2.2-3.9,2.7c-1.6,0.5-3.6,0.7-6.1,0.7c-2.4,0-4.4-0.2-6.1-0.7
			c-1.6-0.5-2.9-1.4-3.9-2.7c-1-1.3-1.6-3-2.1-5.2c-0.4-2.2-0.6-5.1-0.6-8.5v-25.7c0-3.5,0.2-6.4,0.6-8.6c0.4-2.2,1.1-4,2.1-5.2
			c1-1.3,2.3-2.2,3.9-2.7C-381.1,239.1-379.1,238.9-376.7,238.9z M-379.6,283.2c0,1.9,0,3.5,0.1,4.6c0.1,1.2,0.3,2.1,0.5,2.7
			c0.2,0.6,0.5,1,0.9,1.2c0.4,0.2,0.8,0.3,1.3,0.3c0.5,0,1-0.1,1.4-0.3c0.4-0.2,0.7-0.6,0.9-1.2c0.2-0.6,0.4-1.5,0.5-2.7
			c0.1-1.2,0.1-2.7,0.1-4.6v-28.3c0-1.9,0-3.5-0.1-4.7c-0.1-1.2-0.2-2.1-0.5-2.7c-0.2-0.6-0.5-1-0.9-1.2c-0.4-0.2-0.8-0.3-1.4-0.3
			c-0.5,0-1,0.1-1.3,0.3c-0.4,0.2-0.7,0.6-0.9,1.2c-0.2,0.6-0.4,1.5-0.5,2.7c-0.1,1.2-0.1,2.7-0.1,4.7V283.2z"/>
		<path class="st0" d="M-316.4,239.7v7h-2.4v35.1c0,3.5-0.2,6.3-0.6,8.5c-0.4,2.2-1.1,4-2,5.2s-2.2,2.2-3.8,2.7
			c-1.6,0.5-3.6,0.7-6,0.7c-2.4,0-4.4-0.2-5.9-0.7c-1.6-0.5-2.8-1.4-3.8-2.7c-0.9-1.3-1.6-3-2-5.2c-0.4-2.2-0.6-5.1-0.6-8.5v-35.1
			h-2.4v-7h13.3v7h-1.1v36.5c0,1.9,0,3.5,0.1,4.6c0.1,1.2,0.2,2.1,0.4,2.7c0.2,0.6,0.5,1,0.8,1.2c0.4,0.2,0.8,0.3,1.3,0.3
			c0.5,0,1-0.1,1.3-0.3c0.4-0.2,0.7-0.6,0.9-1.2c0.2-0.6,0.4-1.5,0.5-2.7s0.1-2.7,0.1-4.6v-36.5h-1.2v-7H-316.4z"/>
		<path class="st0" d="M-279,246.7v-7h12.4v7h-2.3v51.5h-8l-10.6-35.4h-0.3v28.3h3v7.1h-13.4v-7.1h2.5v-44.4h-2.5v-7h13.3l8.1,28.2
			h0.3v-21.2H-279z"/>
		<path class="st0" d="M-240.4,257.7h-7.6v-18h32.2v18h-7.6v-11.2h-3.7v44.5h3.1v7.1h-15.9v-7.1h3.2v-44.5h-3.7V257.7z"/>
		<path class="st0" d="M-196.1,239.7h20.5v7h-2.6l5,44.4h2.6v7.1h-13.8v-7.1h1.9l-0.7-8.2h-5.4l-0.7,8.2h1.7v7.1H-201v-7.1h2.6
			l5.1-44.4h-2.7V239.7z M-188.1,276.3h4.2l-2-22.5h-0.3L-188.1,276.3z"/>
		<path class="st0" d="M-137.1,291.1v7.1h-15v-7.1h2.6v-44.4h-2.6v-7h15v7h-2.7v44.4H-137.1z"/>
		<path class="st0" d="M-99.2,246.7v-7h12.4v7h-2.3v51.5h-8l-10.6-35.4h-0.3v28.3h3v7.1h-13.4v-7.1h2.5v-44.4h-2.5v-7h13.3l8.1,28.2
			h0.3v-21.2H-99.2z"/>
	</g>
	<g>
		<path class="st0" d="M-385.7,321.9h-3.1v-7.4h13.3v7.4h-3.1v-4.6h-1.5v18.4h1.3v2.9h-6.5v-2.9h1.3v-18.4h-1.5V321.9z"/>
		<path class="st0" d="M-364.6,314.5h8.5v2.9h-1.1l2.1,18.3h1.1v2.9h-5.7v-2.9h0.8l-0.3-3.4h-2.2l-0.3,3.4h0.7v2.9h-5.5v-2.9h1.1
			l2.1-18.3h-1.1V314.5z M-361.3,329.6h1.7l-0.8-9.3h-0.1L-361.3,329.6z"/>
		<path class="st0" d="M-338.7,325.4h4.9v13.2h-3.6v-1.3c-0.2,0.6-0.6,1-1.2,1.2c-0.5,0.3-1.1,0.4-1.8,0.4c-0.6,0-1-0.1-1.5-0.3
			c-0.4-0.2-0.8-0.5-1.1-0.9c-0.3-0.4-0.5-1-0.7-1.8c-0.1-0.8-0.2-1.7-0.2-2.9V320c0-1.2,0.1-2.1,0.2-2.9c0.1-0.7,0.4-1.3,0.7-1.8
			c0.3-0.4,0.6-0.8,1.1-0.9c0.4-0.2,0.9-0.3,1.5-0.3c0.6,0,1.2,0.1,1.7,0.3c0.5,0.2,0.9,0.6,1.2,1.1v-1h3.3v7.4h-3.4v-1.8
			c0-0.7,0-1.2-0.1-1.6c0-0.4-0.1-0.7-0.2-0.9c-0.1-0.2-0.2-0.4-0.4-0.4c-0.1-0.1-0.3-0.1-0.5-0.1c-0.2,0-0.4,0-0.6,0.1
			c-0.1,0.1-0.3,0.2-0.4,0.5c-0.1,0.2-0.2,0.6-0.2,1c0,0.5-0.1,1.1-0.1,1.8v12.1c0,0.8,0,1.4,0.1,1.8c0,0.4,0.1,0.8,0.2,1
			c0.1,0.2,0.2,0.4,0.4,0.5c0.1,0.1,0.3,0.1,0.6,0.1c0.2,0,0.4,0,0.5-0.1c0.1-0.1,0.3-0.2,0.4-0.4c0.1-0.2,0.2-0.5,0.2-0.9
			c0.1-0.4,0.1-0.9,0.1-1.6v-4.7h-1.2V325.4z"/>
		<path class="st0" d="M-316.7,317.4h-1.3v18.3h2.3V330h3.4v8.6h-10.7v-2.9h1.1v-18.3h-1.1v-2.9h6.4V317.4z"/>
		<path class="st0" d="M-295.5,335.7v2.9h-6.2v-2.9h1.1v-18.3h-1.1v-2.9h6.2v2.9h-1.1v18.3H-295.5z"/>
		<path class="st0" d="M-277.1,317.4v-2.9h5.1v2.9h-0.9v21.2h-3.3l-4.4-14.6h-0.1v11.7h1.2v2.9h-5.5v-2.9h1v-18.3h-1v-2.9h5.5
			l3.4,11.6h0.1v-8.7H-277.1z"/>
		<path class="st0" d="M-254.3,317.4h-2.3v7h4.2v2.9h-4.2v8.4h2.3V330h3.4v8.6h-10.7v-2.9h1.1v-18.3h-1.1v-2.9h10.7v7.4h-3.4V317.4z
			"/>
		<path class="st0" d="M-218,335.7v2.9h-5.6v-2.9h1.1v-18.3h-1.1v-2.9h5.6v2.9h-0.6v7h2.4v-7h-0.5v-2.9h5.7v2.9h-1.1v18.3h1.1v2.9
			h-5.7v-2.9h0.5v-8.4h-2.4v8.4H-218z"/>
		<path class="st0" d="M-193.1,317.4h-2.3v7h4.2v2.9h-4.2v8.4h2.3V330h3.4v8.6h-10.7v-2.9h1.1v-18.3h-1.1v-2.9h10.7v7.4h-3.4V317.4z
			"/>
		<path class="st0" d="M-171.6,314.5c1.4,0,2.5,0.4,3.1,1.1c0.6,0.7,1,2,1,3.7v2.9c0,1.2-0.1,2.1-0.4,2.7c-0.3,0.6-0.7,1.1-1.1,1.3
			v0.1c1,0.5,1.5,1.7,1.6,3.5l0.1,5.1c0,0.3,0,0.5,0.1,0.6c0.1,0.1,0.2,0.2,0.4,0.2h0.4v2.9h-2.1c-0.5,0-1,0-1.3-0.2
			c-0.4-0.1-0.7-0.3-0.9-0.5c-0.2-0.3-0.4-0.6-0.5-1c-0.1-0.4-0.2-1-0.2-1.6l-0.1-6.1c0-0.6-0.1-1-0.2-1.2c-0.1-0.2-0.4-0.3-0.7-0.3
			h-1.4v8h0.9v2.9h-6v-2.9h1.1v-18.3h-1.1v-2.9H-171.6z M-172.4,324.9c0.3,0,0.6-0.1,0.7-0.3c0.1-0.2,0.2-0.6,0.2-1.2v-4.3
			c0-0.6-0.1-1.1-0.2-1.3c-0.1-0.2-0.4-0.4-0.9-0.4h-1.3v7.5H-172.4z"/>
		<path class="st0" d="M-148.8,317.4h-2.3v7h4.2v2.9h-4.2v8.4h2.3V330h3.4v8.6h-10.7v-2.9h1.1v-18.3h-1.1v-2.9h10.7v7.4h-3.4V317.4z
			"/>
	</g>
	<path class="st0" d="M-22.1,229.4h-490.1v-1.2h490.1V229.4z M-22.1,303.6h-490.1v1.2h490.1V303.6z"/>
	<g>
		<g>
			<polygon class="st0" points="-402,52.7 -402,42 -511.9,42 -416,208.1 -403.7,208.1 -493.4,52.7 			"/>
			<polygon class="st0" points="-132.2,42 -132.2,52.7 -40.8,52.7 -130.5,208.1 -118.2,208.1 -22.3,42 			"/>
		</g>
		<polygon class="st0" points="-210.9,347.2 -267.1,444.6 -323.3,347.2 -335.7,347.2 -267.1,466 -198.5,347.2 		"/>
	</g>
	<g>
		<path class="st0" d="M-445.5,145.9c0,0,20.4-13.5,51.5-28.8c31.1-15.2,55.3-46.2,56.2-43.8c0.9,2.4,2.5,21.8,2.5,21.8l22.7,43.3
			c0,0-42.1-39.7-41.9-26.6c0.2,13.1,6.1,34.1,6.1,34.1h-28.6l-13.7-11.4l5.4,11.4h-10.4c0,0-2.1-10.2-7-9.7
			c-4.8,0.5-9.1,9.7-9.1,9.7H-445.5z"/>
		<path class="st0" d="M-331.2,73.2l62.5,72.7c0,0,27-0.4,24.8-5.4c-2.1-5.1-20.9-41.7-20.9-41.7s25.2,20.3,31.6,24.3
			c6.4,4,9.1,4,9.1,4s-8.9-25-19.7-31.9c-10.8-6.9-14-28.3-14-28.3l15.8,10.5l-12.9-25.8l-1.9-46.4c0,0-7.1,8-20.9,12.8
			c-13.7,4.8-22.3,20.6-25.7,27.6C-306.8,52.5-331.2,73.2-331.2,73.2z"/>
		<path class="st0" d="M-239.1,30.9c0,0,13.4,31.9,26.2,53.3c12.9,21.4,59.2,61.7,59.2,61.7l11-19.2l-22.8-21.8l-10.2,2.9l12.3-12.7
			l-1.9-21.9l-22.5,3.8l-52.7-59.1L-239.1,30.9z"/>
		<polygon class="st0" points="-149.4,98 -113.8,143 -88.7,145.9 -103.9,116.8 -112.2,127 -142.7,95.1 		"/>
	</g>
	<g>
		<path class="st0" d="M-351.3,177.3h-2.4v7.4h4.4v3.1h-4.4v8.9h2.4v-6h3.6v9.1h-11.4v-3.1h1.1v-19.4h-1.1v-3.1h11.4v7.9h-3.6V177.3
			z"/>
		<path class="st0" d="M-331.9,181c0,0.6,0.1,1.1,0.4,1.6c0.3,0.5,0.7,1,1.2,1.6l2.1,2.3c0.4,0.5,0.8,0.9,1,1.3
			c0.3,0.4,0.5,0.8,0.7,1.2c0.2,0.4,0.3,0.9,0.4,1.4c0.1,0.5,0.1,1.1,0.1,1.7v2c0,1.2-0.1,2.1-0.2,2.9c-0.2,0.8-0.4,1.4-0.7,1.9
			c-0.3,0.5-0.7,0.8-1.2,1c-0.5,0.2-1,0.3-1.6,0.3c-0.6,0-1.2-0.1-1.8-0.3c-0.6-0.2-1-0.6-1.2-1.2v1.2h-3.5v-9.1h3.6v3.1
			c0,0.7,0,1.3,0.1,1.8c0,0.4,0.1,0.8,0.2,1c0.1,0.2,0.2,0.4,0.4,0.5c0.1,0.1,0.3,0.1,0.5,0.1c0.2,0,0.4,0,0.6-0.1
			c0.2-0.1,0.3-0.2,0.4-0.5c0.1-0.2,0.2-0.6,0.2-1c0-0.4,0.1-1,0.1-1.7v-1.3c0-0.5,0-0.9-0.1-1.2c0-0.3-0.1-0.6-0.3-0.9
			c-0.1-0.3-0.3-0.6-0.5-0.8c-0.2-0.3-0.5-0.6-0.8-0.9l-2.1-2.3c-0.4-0.5-0.8-0.9-1-1.2c-0.3-0.4-0.5-0.8-0.6-1.2
			c-0.2-0.4-0.3-0.8-0.3-1.3c-0.1-0.5-0.1-1-0.1-1.6v-1.7c0-1,0.1-1.8,0.2-2.5c0.1-0.7,0.4-1.2,0.7-1.6c0.3-0.4,0.7-0.7,1.1-0.9
			c0.4-0.2,1-0.3,1.6-0.3c0.6,0,1.2,0.1,1.8,0.3c0.5,0.2,0.9,0.6,1.2,1.1v-1.1h3.5v7.9h-3.6V180c0-0.7,0-1.2-0.1-1.7
			c0-0.4-0.1-0.7-0.2-0.9c-0.1-0.2-0.2-0.3-0.4-0.4c-0.1-0.1-0.3-0.1-0.5-0.1c-0.2,0-0.4,0-0.6,0.1c-0.2,0.1-0.3,0.2-0.4,0.4
			c-0.1,0.2-0.2,0.5-0.2,0.9c0,0.4-0.1,0.9-0.1,1.6V181z"/>
		<path class="st0" d="M-311.1,182.1h-3.3v-7.9h14.1v7.9h-3.3v-4.9h-1.6v19.4h1.4v3.1h-6.9v-3.1h1.4v-19.4h-1.6V182.1z"/>
		<path class="st0" d="M-281.8,174.3c0.9,0,1.7,0.1,2.3,0.3c0.6,0.2,1.1,0.6,1.5,1.1c0.4,0.5,0.7,1.2,0.8,2.1s0.3,2,0.3,3.3v12.2
			c0,1.3-0.1,2.4-0.3,3.2c-0.2,0.9-0.5,1.5-0.8,2c-0.4,0.5-0.9,0.9-1.5,1.1c-0.6,0.2-1.4,0.3-2.3,0.3h-7.3v-3.1h1.1v-19.4h-1.1v-3.1
			H-281.8z M-283.7,196.7h1.3c0.5,0,0.8-0.1,1-0.5c0.2-0.3,0.2-0.9,0.2-1.8v-14.8c0-0.9-0.1-1.5-0.2-1.8c-0.2-0.3-0.5-0.5-1-0.5
			h-1.3V196.7z"/>
		<path class="st0" d="M-241.6,180.3c0-0.7,0-1.2-0.1-1.6s-0.1-0.8-0.2-1c-0.1-0.2-0.2-0.4-0.4-0.5c-0.2-0.1-0.4-0.1-0.6-0.1
			c-0.2,0-0.4,0-0.5,0.1c-0.1,0.1-0.3,0.3-0.3,0.5c-0.1,0.2-0.1,0.6-0.2,1c0,0.4,0,1,0,1.7v1.9h-3.7v-1.3c0-1.4,0.1-2.5,0.2-3.4
			c0.1-0.9,0.4-1.6,0.8-2.1c0.4-0.5,0.9-0.9,1.5-1.1c0.6-0.2,1.4-0.3,2.4-0.3c0.9,0,1.7,0.1,2.4,0.3c0.6,0.2,1.2,0.5,1.6,1
			c0.4,0.5,0.7,1.1,0.9,1.9c0.2,0.8,0.3,1.8,0.3,3v0.7c0,0.5,0,1-0.1,1.4c-0.1,0.4-0.2,0.8-0.4,1.2c-0.2,0.4-0.4,0.8-0.6,1.2
			c-0.3,0.4-0.6,0.8-1,1.3l-2.2,2.5c-0.3,0.3-0.5,0.6-0.7,0.9c-0.2,0.3-0.4,0.6-0.5,0.9c-0.1,0.3-0.2,0.7-0.2,1
			c0,0.4-0.1,0.8-0.1,1.3v4h2.4v-6h3.6v9.1h-10.1v-7c0-0.7,0-1.3,0.1-1.8c0.1-0.5,0.2-1,0.3-1.4c0.1-0.4,0.4-0.9,0.6-1.3
			c0.3-0.4,0.6-0.8,1-1.3l2.8-3.3c0.2-0.3,0.4-0.5,0.6-0.7c0.2-0.2,0.3-0.4,0.4-0.6c0.1-0.2,0.2-0.4,0.2-0.6c0-0.2,0.1-0.5,0.1-0.7
			V180.3z"/>
		<path class="st0" d="M-225.7,178.7c0-1,0.1-1.8,0.2-2.4c0.2-0.6,0.5-1.1,0.9-1.5c0.4-0.4,1-0.6,1.6-0.7c0.7-0.1,1.6-0.2,2.6-0.2
			c1.1,0,1.9,0.1,2.6,0.2c0.7,0.1,1.2,0.4,1.6,0.7c0.4,0.4,0.7,0.9,0.9,1.5c0.2,0.6,0.2,1.4,0.2,2.4v16.6c0,1-0.1,1.7-0.2,2.4
			c-0.2,0.6-0.5,1.1-0.9,1.5c-0.4,0.4-0.9,0.6-1.6,0.8c-0.7,0.1-1.6,0.2-2.6,0.2c-1.1,0-1.9-0.1-2.6-0.2c-0.7-0.1-1.2-0.4-1.6-0.8
			c-0.4-0.4-0.7-0.9-0.9-1.5c-0.2-0.6-0.2-1.4-0.2-2.4V178.7z M-221.5,194.9c0,0.5,0,0.9,0.1,1.1c0,0.3,0.1,0.5,0.2,0.7
			c0.1,0.2,0.2,0.3,0.4,0.3c0.2,0,0.4,0.1,0.6,0.1s0.4,0,0.6-0.1c0.2,0,0.3-0.1,0.4-0.3c0.1-0.2,0.2-0.4,0.2-0.7
			c0-0.3,0.1-0.7,0.1-1.1v-15.8c0-0.5,0-0.8-0.1-1.1c0-0.3-0.1-0.5-0.2-0.6c-0.1-0.1-0.2-0.2-0.4-0.3c-0.2,0-0.4-0.1-0.6-0.1
			s-0.4,0-0.6,0.1c-0.2,0-0.3,0.1-0.4,0.3c-0.1,0.1-0.2,0.4-0.2,0.6c0,0.3-0.1,0.6-0.1,1.1V194.9z"/>
		<path class="st0" d="M-197.1,196.7v3.1h-6.3v-3.1h1.1v-19.4h-1.1v-3.1h5.3v22.4H-197.1z"/>
		<path class="st0" d="M-185.8,178.7c0-1,0.1-1.8,0.2-2.4c0.2-0.6,0.5-1.1,0.9-1.5c0.4-0.4,1-0.6,1.6-0.7c0.7-0.1,1.6-0.2,2.6-0.2
			c1.1,0,1.9,0.1,2.6,0.2c0.7,0.1,1.2,0.4,1.6,0.7c0.4,0.4,0.7,0.9,0.9,1.5c0.2,0.6,0.2,1.4,0.2,2.4v16.6c0,1-0.1,1.7-0.2,2.4
			c-0.2,0.6-0.5,1.1-0.9,1.5c-0.4,0.4-0.9,0.6-1.6,0.8c-0.7,0.1-1.6,0.2-2.6,0.2c-1.1,0-1.9-0.1-2.6-0.2c-0.7-0.1-1.2-0.4-1.6-0.8
			c-0.4-0.4-0.7-0.9-0.9-1.5c-0.2-0.6-0.2-1.4-0.2-2.4V178.7z M-181.6,194.9c0,0.5,0,0.9,0.1,1.1c0,0.3,0.1,0.5,0.2,0.7
			c0.1,0.2,0.2,0.3,0.4,0.3c0.2,0,0.4,0.1,0.6,0.1s0.4,0,0.6-0.1c0.2,0,0.3-0.1,0.4-0.3c0.1-0.2,0.2-0.4,0.2-0.7
			c0-0.3,0.1-0.7,0.1-1.1v-15.8c0-0.5,0-0.8-0.1-1.1c0-0.3-0.1-0.5-0.2-0.6c-0.1-0.1-0.2-0.2-0.4-0.3c-0.2,0-0.4-0.1-0.6-0.1
			s-0.4,0-0.6,0.1c-0.2,0-0.3,0.1-0.4,0.3c-0.1,0.1-0.2,0.4-0.2,0.6c0,0.3-0.1,0.6-0.1,1.1V194.9z"/>
	</g>
</g>
<g>
	<path d="M24.2,246.8v6.4h-2.6V283h2.1v6.4H8.4V283h3.1v-29.8H8.4v-6.4H24.2z M39.6,246.8v6.4H37L31.3,264l7.4,19h2.6v6.4H26.6V283
		h2.1L22.6,267l7.2-13.9h-2.7v-6.4H39.6z"/>
	<path d="M65.9,246.8v6.4h-4.4V283h4.4v6.4H47.3V283h4.1v-29.8h-4.1v-6.4H65.9z"/>
	<path d="M86.3,246.8c3.5,8.3,5.7,14.7,8.5,25.5h0.5C95,264.8,95,263.1,95,262v-8.8h-2.5v-6.4h11.2v6.4h-2.3v36.5h-7.9
		c-6.4-16.6-7.3-19-10.4-29.5h-0.5c0.2,3.2,0.5,12.4,0.5,14.1v8.6h2.3v6.4H74.1V283h2.7v-29.8h-2.7v-6.4H86.3z"/>
	<path d="M131.3,249.9h0.1v-3.2h6.8v14.5h-6.8c-0.1-5.2-1.6-8-4.2-8c-3.3,0-3.6,3.1-3.6,13.8c0,12.6,0.6,15.8,3.7,15.8
		c2.4,0,3.7-2.4,3.7-7h-2.8v-6.4h12.9v1.7c0,12.1-4.8,18.8-13.8,18.8c-9.2,0-14.7-7.9-14.7-21.8c0-14.1,4.5-22.1,12.2-22.1
		C127.4,246.1,129.4,247.3,131.3,249.9z"/>
	<path d="M163.7,246.8c8.1,0,14.7,7.7,14.7,20.8c0,14-5.6,21.8-14.8,21.8h-14.8V283h3v-29.8h-3v-6.4H163.7z M161.9,283
		c3.9,0,5.8-1.9,5.8-15.1c0-12.5-1.9-14.7-5.8-14.7V283z"/>
	<path d="M216.9,268.1c0,13-5.5,21.9-14.5,21.9c-8.9,0-14.5-8.7-14.5-21.9c0-13.4,5.7-21.9,14.5-21.9
		C211.3,246.1,216.9,255.1,216.9,268.1z M202.2,253.3c-2.7,0-3.4,2.8-3.4,14.1c0,14.2,1,15.5,3.5,15.5c3.1,0,3.5-3.6,3.5-14.8
		C205.8,255.9,205.2,253.3,202.2,253.3z"/>
	<path d="M242.3,246.8l2.6,16.7h0.7l2.6-16.7H266v6.4h-2.8V283h2.8v6.4h-15.2V283h2.2v-30.5h-0.7l-6.8,36.8h-3.3l-6.9-36.8l-0.8-0.1
		V283h2.2v6.4h-11.1V283h2.9v-29.8h-2.9v-6.4H242.3z"/>
	<path d="M324.3,246.8v15.7h-6.4v-9.3h-3.6V283h3.5v6.4h-17V283h3.5v-29.8h-3.6v9.3h-6.4v-15.7H324.3z"/>
	<path d="M348.5,246.8c6.4,0,12.4,4.2,12.4,12.5c0,3.9-1.2,6.4-4.2,8.5L360,283h1.8v6.4h-9.3l-4-18.7h-3.3V283h2.6v6.4h-15.3V283
		h2.6v-29.8h-2.6v-6.4H348.5z M345.1,264.5h0.4c4.4,0,5.3-1.9,5.3-6.1c0-4.1-1.1-5.6-5.4-5.6h-0.3V264.5z"/>
	<path d="M396.3,246.8v6.4h-2.8l4.8,29.8h2.7v6.4h-14.5V283h2.7l-1-7.9h-7l-1,7.9h2.6v6.4h-14.6V283h2.8l4.5-29.8h-2.7v-6.4H396.3z
		 M383.9,252.1l-2.1,17.7h5.5l-2.2-17.7H383.9z"/>
	<path d="M426.1,246.8v6.4h-4.4V283h4.4v6.4h-18.6V283h4.1v-29.8h-4.1v-6.4H426.1z"/>
	<path d="M452.4,246.8v6.4h-4.7V283h7.2v-12.6h7.6v19h-28.6V283h3.8v-29.8h-3.8v-6.4H452.4z"/>
	<path d="M485.9,249.5v-2.7h6.4v12.8h-6.4v-0.5c0-4.5-1.2-6.4-3.6-6.4c-1.4,0-2.8,0.9-2.8,3c0,2.8,1.1,4,4.6,7
		c6.8,5.6,9.2,10.1,9.2,15.4c0,6.6-4.1,11.5-9.6,11.5c-2.6,0-4.4-0.8-6.5-3v2.7h-6.4v-13.8h6.4v1.2c0,4.4,1.3,6.6,3.8,6.6
		c2.1,0,3.2-1.6,3.2-4.2c0-2.7-1.9-5.2-5.3-8.2c-7.3-6.5-8.4-10.1-8.4-14.2c0-5.9,3.6-10.2,8.8-10.2
		C481.9,246.4,483.5,247,485.9,249.5z"/>
</g>
<g>
	<path d="M182.6,188.2c3.6,0,6.6,3.4,6.6,9.3c0,6.2-2.5,9.7-6.6,9.7H176v-2.8h1.4v-13.3H176v-2.8H182.6z M181.8,204.3
		c1.8,0,2.6-0.8,2.6-6.7c0-5.6-0.8-6.6-2.6-6.6V204.3z"/>
	<path d="M205.8,188.2v6h-3.4v-3.2h-3.3v5h2.5v2.8h-2.5v5.4h3.3V201h3.4v6.2H193v-2.8h1.6v-13.3H193v-2.8H205.8z"/>
	<path d="M215.7,188.2c4.3,0,6.9,2.3,6.9,6.1c0,3.9-2.5,5.9-7.3,5.9v4.1h1.6v2.8h-7.4v-2.8h1.3v-13.3h-1.3v-2.8H215.7z M215.3,197.3
		c1.9,0,2.6-1.1,2.6-3.2c0-2.1-0.8-3.1-2.6-3.1V197.3z"/>
	<path d="M232.8,188.2v2.8h-0.8v11.6c0,1.3,0.5,1.9,1.3,1.9c1,0,1.5-0.7,1.5-2.1v-11.5h-0.8v-2.8h5.2v2.8h-1.5v11.6
		c0,2.9-2,4.9-4.9,4.9c-3.5,0-5.3-1.9-5.3-5.1v-11.3h-1.5v-2.8H232.8z"/>
	<path d="M250.8,188.2v2.8h-1.9v13.3h1.9v2.8h-8.3v-2.8h1.8v-13.3h-1.8v-2.8H250.8z"/>
	<path d="M261.2,189.4v-1.2h2.8v5.7h-2.8v-0.2c0-2-0.5-2.8-1.6-2.8c-0.6,0-1.2,0.4-1.2,1.3c0,1.2,0.5,1.8,2.1,3.1
		c3.1,2.5,4.1,4.5,4.1,6.9c0,2.9-1.8,5.1-4.3,5.1c-1.2,0-1.9-0.4-2.9-1.3v1.2h-2.8V201h2.8v0.5c0,2,0.6,2.9,1.7,2.9
		c0.9,0,1.4-0.7,1.4-1.9c0-1.2-0.8-2.3-2.3-3.6c-3.3-2.9-3.8-4.5-3.8-6.3c0-2.6,1.6-4.5,3.9-4.5
		C259.4,188.1,260.1,188.3,261.2,189.4z"/>
	<path d="M289,193.1c0,3.2-1.8,4.8-4.2,7.1c-1.6,1.5-2.3,2.8-2.3,4.3h3.8v-2.9h2.8v5.5h-9.8v-0.3c0-4.8,1.7-6.7,3.8-9.2
		c1.3-1.5,1.9-2.9,1.9-4.7c0-1.5-0.4-2.2-1.2-2.2c-0.9,0-1.3,0.7-1.3,2.3c0,0.4,0.1,1,0.1,1.3l-3.3-0.2c0-0.2,0-0.6,0-0.8
		c0-3.8,2.3-5.4,4.8-5.4C287,188,289,190.1,289,193.1z"/>
	<path d="M302.9,197.3v0.8c0,6.9-1.6,9.4-4.9,9.4c-3.1,0-4.8-2.5-4.8-9.2v-1.2c0-7.5,2.1-9.1,4.9-9.1
		C301.1,188,302.9,190.4,302.9,197.3z M296.8,201.8c0,1.9,0.3,2.9,1.2,2.9c0.9,0,1.2-1,1.2-3.9v-5.5c0-3.6-0.2-4.4-1.3-4.4
		c-0.9,0-1.2,0.9-1.2,3.2V201.8z"/>
	<path d="M316.6,197.3v0.8c0,6.9-1.6,9.4-4.9,9.4c-3.1,0-4.8-2.5-4.8-9.2v-1.2c0-7.5,2.1-9.1,4.9-9.1
		C314.8,188,316.6,190.4,316.6,197.3z M310.5,201.8c0,1.9,0.3,2.9,1.2,2.9c0.9,0,1.2-1,1.2-3.9v-5.5c0-3.6-0.2-4.4-1.3-4.4
		c-0.9,0-1.2,0.9-1.2,3.2V201.8z"/>
	<path d="M330,193.1c0,3.2-1.8,4.8-4.2,7.1c-1.6,1.5-2.3,2.8-2.3,4.3h3.8v-2.9h2.8v5.5h-9.8v-0.3c0-4.8,1.7-6.7,3.8-9.2
		c1.3-1.5,1.9-2.9,1.9-4.7c0-1.5-0.4-2.2-1.2-2.2c-0.9,0-1.3,0.7-1.3,2.3c0,0.4,0.1,1,0.1,1.3l-3.3-0.2c0-0.2,0-0.6,0-0.8
		c0-3.8,2.3-5.4,4.8-5.4C328,188,330,190.1,330,193.1z"/>
</g>
<g>
	<path d="M43.7,319.2V318h2.8v5.7h-2.8v-0.2c0-2-0.5-2.8-1.6-2.8c-0.6,0-1.2,0.4-1.2,1.3c0,1.2,0.5,1.8,2.1,3.1
		c3,2.5,4.1,4.5,4.1,6.9c0,2.9-1.8,5.1-4.3,5.1c-1.2,0-1.9-0.4-2.9-1.3v1.2h-2.8v-6.2h2.8v0.5c0,2,0.6,2.9,1.7,2.9
		c0.9,0,1.4-0.7,1.4-1.9c0-1.2-0.8-2.3-2.3-3.6c-3.3-2.9-3.8-4.5-3.8-6.3c0-2.6,1.6-4.5,3.9-4.5C41.8,317.8,42.5,318.1,43.7,319.2z"
		/>
	<path d="M63.3,318v6H60v-3.2h-3.3v5h2.5v2.8h-2.5v5.4H60v-3.3h3.4v6.2H50.5v-2.8h1.6v-13.3h-1.6V318H63.3z"/>
	<path d="M72.7,318c1.5,3.7,2.5,6.5,3.8,11.3h0.2c-0.2-3.3-0.2-4-0.2-4.6v-3.9h-1.1V318h5v2.8h-1v16.3h-3.5
		c-2.9-7.4-3.2-8.4-4.6-13.1H71c0.1,1.4,0.2,5.5,0.2,6.3v3.8h1v2.8h-5v-2.8h1.2v-13.3h-1.2V318H72.7z"/>
	<path d="M97.3,318v7h-2.8v-4.2h-1.6v13.3h1.5v2.8h-7.6v-2.8h1.5v-13.3h-1.6v4.2h-2.8v-7H97.3z"/>
	<path d="M108.8,318v2.8h-1.9v13.3h1.9v2.8h-8.3v-2.8h1.8v-13.3h-1.8V318H108.8z"/>
	<path d="M125,318v6h-3.4v-3.2h-3.3v5h2.5v2.8h-2.5v5.4h3.3v-3.3h3.4v6.2h-12.8v-2.8h1.6v-13.3h-1.6V318H125z"/>
	<path d="M136.2,318c2.8,0,5.5,1.9,5.5,5.6c0,1.7-0.5,2.8-1.9,3.8l1.5,6.7h0.8v2.8H138l-1.8-8.3h-1.5v5.5h1.2v2.8H129v-2.8h1.2
		v-13.3H129V318H136.2z M134.7,325.9h0.2c1.9,0,2.3-0.9,2.3-2.7c0-1.8-0.5-2.5-2.4-2.5h-0.1V325.9z"/>
	<path d="M152.5,319.2V318h2.8v5.7h-2.8v-0.2c0-2-0.5-2.8-1.6-2.8c-0.6,0-1.2,0.4-1.2,1.3c0,1.2,0.5,1.8,2.1,3.1
		c3.1,2.5,4.1,4.5,4.1,6.9c0,2.9-1.8,5.1-4.3,5.1c-1.2,0-1.9-0.4-2.9-1.3v1.2h-2.8v-6.2h2.8v0.5c0,2,0.6,2.9,1.7,2.9
		c0.9,0,1.4-0.7,1.4-1.9c0-1.2-0.8-2.3-2.3-3.6c-3.3-2.9-3.8-4.5-3.8-6.3c0-2.6,1.6-4.5,3.9-4.5
		C150.7,317.8,151.4,318.1,152.5,319.2z"/>
	<path d="M177.2,318c3.6,0,6.6,3.4,6.6,9.3c0,6.2-2.5,9.7-6.6,9.7h-6.6v-2.8h1.4v-13.3h-1.4V318H177.2z M176.4,334.1
		c1.8,0,2.6-0.8,2.6-6.7c0-5.6-0.8-6.6-2.6-6.6V334.1z"/>
	<path d="M200.4,318v6H197v-3.2h-3.3v5h2.5v2.8h-2.5v5.4h3.3v-3.3h3.4v6.2h-12.8v-2.8h1.6v-13.3h-1.6V318H200.4z"/>
	<path d="M218.9,318v2.8h-1.4l2.1,9h0.1l2.1-9h-1.6V318h6.6v2.8h-1.3l-4.3,16.4h-3.6l-4.2-16.4H212V318H218.9z"/>
	<path d="M242.6,318v6h-3.4v-3.2h-3.3v5h2.5v2.8h-2.5v5.4h3.3v-3.3h3.4v6.2h-12.8v-2.8h1.6v-13.3h-1.6V318H242.6z M241.5,311.9
		l-5.3,5h-2.3l2.6-5H241.5z"/>
	<path d="M254.6,318v2.8h-2.1v13.3h3.2v-5.6h3.4v8.4h-12.7v-2.8h1.7v-13.3h-1.7V318H254.6z"/>
	<path d="M275.8,327.5c0,5.8-2.5,9.8-6.5,9.8c-4,0-6.5-3.9-6.5-9.8c0-6,2.5-9.8,6.5-9.8C273.3,317.7,275.8,321.7,275.8,327.5z
		 M269.3,320.9c-1.2,0-1.5,1.2-1.5,6.3c0,6.3,0.5,6.9,1.5,6.9c1.4,0,1.5-1.6,1.5-6.6C270.8,322.1,270.6,320.9,269.3,320.9z"/>
	<path d="M297.3,318c3.6,0,6.6,3.4,6.6,9.3c0,6.2-2.5,9.7-6.6,9.7h-6.6v-2.8h1.3v-13.3h-1.3V318H297.3z M296.5,334.1
		c1.8,0,2.6-0.8,2.6-6.7c0-5.6-0.8-6.6-2.6-6.6V334.1z"/>
	<path d="M320.5,318v6h-3.4v-3.2h-3.3v5h2.5v2.8h-2.5v5.4h3.3v-3.3h3.4v6.2h-12.8v-2.8h1.6v-13.3h-1.6V318H320.5z"/>
	<path d="M342.9,318l1.2,7.5h0.3l1.2-7.5h7.9v2.8h-1.2v13.3h1.2v2.8h-6.7v-2.8h1v-13.6h-0.3l-3,16.4h-1.5l-3.1-16.4l-0.4,0v13.6h1
		v2.8h-4.9v-2.8h1.3v-13.3h-1.3V318H342.9z"/>
	<path d="M370.4,327.5c0,5.8-2.5,9.8-6.5,9.8c-4,0-6.5-3.9-6.5-9.8c0-6,2.5-9.8,6.5-9.8C367.9,317.7,370.4,321.7,370.4,327.5z
		 M363.9,320.9c-1.2,0-1.5,1.2-1.5,6.3c0,6.3,0.5,6.9,1.5,6.9c1.4,0,1.5-1.6,1.5-6.6C365.4,322.1,365.2,320.9,363.9,320.9z"/>
	<path d="M379.8,318c1.5,3.7,2.5,6.5,3.8,11.3h0.2c-0.2-3.3-0.2-4-0.2-4.6v-3.9h-1.1V318h5v2.8h-1v16.3H383
		c-2.9-7.4-3.2-8.4-4.6-13.1h-0.2c0.1,1.4,0.2,5.5,0.2,6.3v3.8h1v2.8h-5v-2.8h1.2v-13.3h-1.2V318H379.8z"/>
	<path d="M404.4,318v7h-2.8v-4.2h-1.6v13.3h1.5v2.8h-7.6v-2.8h1.5v-13.3h-1.6v4.2H391v-7H404.4z"/>
	<path d="M418.9,318v2.8h-1.3l2.2,13.3h1.2v2.8h-6.5v-2.8h1.2l-0.5-3.5h-3.1l-0.4,3.5h1.2v2.8h-6.5v-2.8h1.3l2-13.3h-1.2V318H418.9z
		 M413.4,320.3l-0.9,7.9h2.5l-1-7.9H413.4z"/>
	<path d="M432,319.4L432,319.4l0.1-1.4h3v6.5h-3c0-2.3-0.7-3.6-1.9-3.6c-1.5,0-1.6,1.4-1.6,6.2c0,5.6,0.3,7,1.6,7
		c1.1,0,1.6-1.1,1.6-3.1h-1.3v-2.8h5.8v0.8c0,5.4-2.1,8.4-6.2,8.4c-4.1,0-6.6-3.5-6.6-9.7c0-6.3,2-9.9,5.4-9.9
		C430.3,317.7,431.2,318.2,432,319.4z"/>
	<path d="M445.5,318c1.5,3.7,2.5,6.5,3.8,11.3h0.2c-0.2-3.3-0.2-4-0.2-4.6v-3.9h-1.1V318h5v2.8h-1v16.3h-3.5
		c-2.9-7.4-3.2-8.4-4.6-13.1h-0.2c0.1,1.4,0.2,5.5,0.2,6.3v3.8h1v2.8h-5v-2.8h1.2v-13.3H440V318H445.5z"/>
	<path d="M469.6,318v6h-3.4v-3.2H463v5h2.5v2.8H463v5.4h3.3v-3.3h3.4v6.2h-12.8v-2.8h1.6v-13.3h-1.6V318H469.6z"/>
</g>
<g>
	<path class="st0" d="M1041.4,229.4H551.3v-1.2h490.1V229.4z M1041.4,303.6H551.3v1.2h490.1V303.6z"/>
	<g>
		<g>
			<polygon class="st0" points="661.4,52.7 661.4,42 551.6,42 647.4,208.1 659.8,208.1 570.1,52.7 			"/>
			<polygon class="st0" points="931.3,42 931.3,52.7 1022.6,52.7 932.9,208.1 945.3,208.1 1041.2,42 			"/>
		</g>
		<polygon class="st0" points="852.6,347.2 796.4,444.6 740.1,347.2 727.8,347.2 796.4,466 864.9,347.2 		"/>
	</g>
	<g>
		<path class="st0" d="M617.9,145.9c0,0,20.4-13.5,51.5-28.8c31.1-15.2,55.3-46.2,56.2-43.8c0.9,2.4,2.5,21.8,2.5,21.8l22.7,43.3
			c0,0-42.1-39.7-41.9-26.6c0.2,13.1,6.1,34.1,6.1,34.1h-28.6l-13.7-11.4l5.4,11.4h-10.4c0,0-2.1-10.2-7-9.7
			c-4.8,0.5-9.1,9.7-9.1,9.7H617.9z"/>
		<path class="st0" d="M732.2,73.2l62.5,72.7c0,0,27-0.4,24.8-5.4c-2.1-5.1-20.9-41.7-20.9-41.7s25.2,20.3,31.6,24.3
			c6.4,4,9.1,4,9.1,4s-8.9-25-19.7-31.9c-10.8-6.9-14-28.3-14-28.3l15.8,10.5l-12.9-25.8l-1.9-46.4c0,0-7.1,8-20.9,12.8
			c-13.7,4.8-22.3,20.6-25.7,27.6C756.7,52.5,732.2,73.2,732.2,73.2z"/>
		<path class="st0" d="M824.3,30.9c0,0,13.4,31.9,26.2,53.3s59.2,61.7,59.2,61.7l11-19.2L898,104.9l-10.2,2.9l12.3-12.7l-1.9-21.9
			l-22.5,3.8L823,17.8L824.3,30.9z"/>
		<polygon class="st0" points="914,98 949.6,143 974.8,145.9 959.5,116.8 951.2,127 920.7,95.1 		"/>
	</g>
</g>
<text transform="matrix(1 0 0 1 550.7803 289.3315)" style="font-family:'RockwellStd-BoldCondensed'; font-size:60.6061px; letter-spacing:4;">Kingdom Trails</text>
<text transform="matrix(1 0 0 1 721.4346 207.1664)" style="font-family:'RockwellStd-BoldCondensed'; font-size:27px; letter-spacing:2;">Depuis 2002</text>
<text transform="matrix(1 0 0 1 580.0108 336.9376)" style="font-family:'RockwellStd-BoldCondensed'; font-size:27px; letter-spacing:2;">Sentiers de vélo de montagne</text>
</svg>
