<?xml version="1.0" encoding="utf-8"?>
<!-- Generator: Adobe Illustrator 27.5.0, SVG Export Plug-In . SVG Version: 6.00 Build 0)  -->
<svg version="1.1" id="Calque_1" xmlns="http://www.w3.org/2000/svg" xmlns:xlink="http://www.w3.org/1999/xlink" x="0px" y="0px"
	 viewBox="0 0 35 25" style="enable-background:new 0 0 35 25;" xml:space="preserve">
<style type="text/css">
	.st0{fill:#424242;}
</style>
<g>
	<g>
		<g>
			<path class="st0" d="M23.4,24.7L23.4,24.7c-0.2,0-0.3,0-0.5,0c-4.9-0.7-8.8-2.7-12.3-6.2c0,0,0,0,0,0l0,0C7,14.9,5.1,11,4.3,6.1
				C4,3.9,5.7,2.8,8.9,0.9l0.7-0.4c0.3-0.2,0.6-0.2,0.9-0.2c0.6,0,1.2,0.4,1.5,1l1.9,4.2c0.4,0.9,0,2-0.9,2.4l-1.4,0.7
				c-0.1,0-0.2,0.2-0.1,0.3c0.3,0.9,1.2,2.8,3.6,5.2l0,0c2.4,2.4,4.3,3.3,5.2,3.7c0.1,0,0.2,0,0.3-0.1l0.7-1.4c0.3-0.6,1-1,1.7-1
				c0.3,0,0.5,0.1,0.7,0.2l4.2,1.9c0.4,0.2,0.8,0.6,0.9,1c0.1,0.5,0.1,0.9-0.2,1.4l-0.4,0.7C26.3,23.1,25.3,24.7,23.4,24.7z
				 M10.4,1.3c-0.1,0-0.2,0-0.3,0.1L9.4,1.8C6.2,3.7,5.1,4.5,5.4,6c0.7,4.6,2.6,8.4,6,11.7l0,0c3.4,3.4,7.1,5.3,11.8,6
				c0.1,0,0.2,0,0.3,0c1.3,0,2-1.2,3.8-4.1l0.4-0.7c0.1-0.2,0.1-0.3,0.1-0.5c-0.1-0.2-0.2-0.3-0.3-0.4l-4.2-1.9
				c-0.4-0.2-0.9,0-1.1,0.4L21.4,18c-0.2,0.4-0.7,0.7-1.1,0.7c-0.1,0-0.3,0-0.4-0.1c-1-0.4-3-1.3-5.6-3.9c0,0,0,0,0,0c0,0,0,0,0,0
				c-2.5-2.6-3.5-4.6-3.9-5.6c-0.2-0.6,0.1-1.2,0.7-1.5l1.4-0.7c0.4-0.2,0.6-0.7,0.4-1.1L11,1.6C10.9,1.4,10.7,1.3,10.4,1.3z"/>
		</g>
	</g>
</g>
</svg>
