<?xml version="1.0" encoding="utf-8"?>
<!-- Generator: Adobe Illustrator 27.5.0, SVG Export Plug-In . SVG Version: 6.00 Build 0)  -->
<svg version="1.1" id="Calque_1" xmlns="http://www.w3.org/2000/svg" xmlns:xlink="http://www.w3.org/1999/xlink" x="0px" y="0px"
	 viewBox="0 0 26.6 19" style="enable-background:new 0 0 26.6 19;" xml:space="preserve">
<style type="text/css">
	.st0{fill:#424242;}
</style>
<g>
	<g>
		<g>
			<path class="st0" d="M18.5,18.7L18.5,18.7c-0.2,0-0.2,0-0.4,0c-3.7-0.5-6.6-2-9.3-4.7l0,0l0,0c-2.7-2.7-4.1-5.7-4.8-9.4
				C3.8,3,5.1,2.2,7.5,0.8L8,0.5c0.2-0.2,0.5-0.2,0.7-0.2c0.5,0,0.9,0.3,1.1,0.8l1.4,3.2c0.3,0.7,0,1.5-0.7,1.8L9.6,6.6
				c-0.1,0-0.2,0.2-0.1,0.2c0.2,0.7,0.9,2.1,2.7,3.9l0,0c1.8,1.8,3.2,2.5,3.9,2.8c0.1,0,0.2,0,0.2-0.1l0.5-1.1
				c0.2-0.5,0.8-0.8,1.3-0.8c0.2,0,0.4,0.1,0.5,0.2l3.2,1.4c0.3,0.2,0.6,0.5,0.7,0.8c0.1,0.4,0.1,0.7-0.2,1.1l-0.3,0.5
				C20.6,17.5,19.9,18.7,18.5,18.7z M8.7,1.1c-0.1,0-0.2,0-0.2,0.1L7.9,1.4c-2.4,1.4-3.2,2-3,3.2c0.5,3.5,2,6.3,4.5,8.8l0,0
				c2.6,2.6,5.4,4,8.9,4.5c0.1,0,0.2,0,0.2,0c1,0,1.5-0.9,2.9-3.1l0.3-0.5c0.1-0.2,0.1-0.2,0.1-0.4c-0.1-0.2-0.2-0.2-0.2-0.3
				l-3.2-1.4c-0.3-0.2-0.7,0-0.8,0.3l-0.6,1.1c-0.2,0.3-0.5,0.5-0.8,0.5c-0.1,0-0.2,0-0.3-0.1c-0.8-0.3-2.3-1-4.2-2.9l0,0l0,0
				C9.7,9.2,9,7.7,8.7,6.9C8.5,6.5,8.7,6,9.2,5.8l1.1-0.5c0.3-0.2,0.5-0.5,0.3-0.8L9.1,1.3C9,1.1,8.9,1.1,8.7,1.1z"/>
		</g>
	</g>
</g>
</svg>
